<svg xmlns="http://www.w3.org/2000/svg" xmlns:svg="http://www.w3.org/2000/svg" viewBox="78 64.49 585.08 95.56">
 <g class="layer">
  <title>Layer 1</title>
  <g id="svg_2">
   <svg xmlns="http://www.w3.org/2000/svg" xmlns:xlink="http://www.w3.org/1999/xlink" enable-background="new 0 0 70.9 90.7" height="90" id="svg_1" preserveAspectRatio="xMinYMin" version="1.1" viewBox="3.5999999046325684 1.2750000953674316 63.60136413574219 88.2249984741211" width="64.88" x="78" xml:space="preserve" y="64.49">
    <path class="st414" d="m55.4,77.5c-0.7,0 -1.4,0.1 -2.1,0.2l0,0c0.2,-0.7 0.3,-1.4 0.3,-2.2c0,-5.7 -4.6,-10.3 -10.3,-10.3l0,0l0,-7.3l-15.6,0l0,7.3l0,0c-5.7,0 -10.3,4.6 -10.3,10.3c0,0.7 0.1,1.5 0.3,2.2l0,0c-0.7,-0.1 -1.4,-0.2 -2.1,-0.2c-5.7,0 -10.3,4.6 -10.3,10.3l60.6,0c-0.1,-5.6 -4.8,-10.3 -10.5,-10.3z" fill="#81D0F4" id="svg_5"/>
    <path class="st183" d="m21.8,21.4c0,-10.7 13.6,-18.6 13.6,-18.6s13.6,7.9 13.6,18.6l0,33.2c0,1.8 -1.5,3.3 -3.3,3.3l-20.6,0c-1.8,0 -3.3,-1.5 -3.3,-3.3l0,-33.2z" fill="#EB6119" id="svg_6"/>
    <path class="st1" d="m21.8,28.7l0,21.9l-12.6,0c-2.9,0 -4.4,-3.4 -2.4,-5.5l15,-16.4z" fill="#FFFFFF" id="svg_7"/>
    <path class="st1" d="m49,28.7l0,21.9l12.7,0c2.9,0 4.4,-3.4 2.4,-5.5l-15.1,-16.4z" fill="#FFFFFF" id="svg_8"/>
    <circle class="st1" cx="35.4" cy="27.8" fill="#FFFFFF" id="svg_9" r="6.4"/>
    <path class="st325" d="m65.2,44.1l-14.7,-15.9l0,-6.7c0,-11.5 -13.7,-19.6 -14.3,-20c-0.5,-0.3 -1,-0.3 -1.5,0c-0.6,0.4 -14.4,8.5 -14.4,19.9l0,6.7l-14.7,16c-1.3,1.4 -1.6,3.4 -0.9,5.2c0.8,1.8 2.5,2.9 4.4,2.9l11.2,0l0,2.5c0,2.6 2.1,4.8 4.8,4.8l20.6,0c2.6,0 4.8,-2.1 4.8,-4.8l0,-2.5l11.2,0c1.9,0 3.6,-1.1 4.4,-2.9c0.8,-1.8 0.4,-3.8 -0.9,-5.2zm-44.9,5l-11.1,0c-1.1,0 -1.5,-0.8 -1.6,-1.1c-0.1,-0.3 -0.4,-1.1 0.3,-1.9l12.5,-13.6l0,16.6l-0.1,0zm27.2,-3.6l-3.3,0c-0.8,0 -1.5,0.7 -1.5,1.5s0.7,1.5 1.5,1.5l3.3,0l0,6.1c0,1 -0.8,1.8 -1.8,1.8l-20.6,0c-1,0 -1.8,-0.8 -1.8,-1.8l0,-6.1l13.8,0c0.8,0 1.5,-0.7 1.5,-1.5s-0.7,-1.5 -1.5,-1.5l-13.8,0l0,-24.1c0,-8.3 9.4,-15 12.1,-16.8c2.8,1.8 12.1,8.5 12.1,16.8l0,24.1zm15.9,2.6c-0.1,0.3 -0.6,1.1 -1.6,1.1l-11.3,0l0,-16.6l12.5,13.5c0.8,0.8 0.5,1.7 0.4,2zm-28,-28.2c-4.3,0 -7.9,3.5 -7.9,7.9c0,4.3 3.5,7.9 7.9,7.9s7.9,-3.5 7.9,-7.9c0,-4.3 -3.5,-7.9 -7.9,-7.9zm0,12.8c-2.7,0 -4.9,-2.2 -4.9,-4.9c0,-2.7 2.2,-4.9 4.9,-4.9s4.9,2.2 4.9,4.9c0,2.7 -2.2,4.9 -4.9,4.9z" fill="#4F4E52" id="svg_10"/>
    <path class="st325" d="m55.4,76c-0.1,0 -0.3,0 -0.4,0c0,-0.2 0,-0.3 0,-0.5c0,-6 -4.5,-11 -10.3,-11.7l0,-5.9l-3,0l0,14.1c0,0.8 0.7,1.5 1.5,1.5s1.5,-0.7 1.5,-1.5l0,-5.1c4.2,0.7 7.3,4.3 7.3,8.7c0,1.6 -0.4,3.1 -1.2,4.5c-0.4,0.7 -0.2,1.6 0.5,2.1c0.2,0.1 0.5,0.2 0.8,0.2c0.5,0 1,-0.3 1.3,-0.7c0.5,-0.8 0.8,-1.6 1.1,-2.5c0.3,0 0.6,0 0.9,0c4.9,0 8.8,4 8.8,8.8c0,0.8 0.7,1.5 1.5,1.5s1.5,-0.7 1.5,-1.5c0.1,-6.7 -5.3,-12 -11.8,-12zm-29.2,-12.2c-5.8,0.7 -10.3,5.7 -10.3,11.7c0,0.2 0,0.3 0,0.5c-0.1,0 -0.3,0 -0.4,0c-6.6,0 -11.9,5.3 -11.9,11.9c0,0.8 0.7,1.5 1.5,1.5s1.5,-0.7 1.5,-1.5c0,-4.9 4,-8.8 8.8,-8.8c0.3,0 0.6,0 0.9,0c0.3,0.9 0.6,1.7 1.1,2.5c0.3,0.5 0.8,0.7 1.3,0.7c0.3,0 0.5,-0.1 0.8,-0.2c0.7,-0.4 1,-1.3 0.5,-2.1c-0.8,-1.4 -1.2,-2.9 -1.2,-4.5c0,-4.4 3.2,-8 7.3,-8.7l0,5.2c0,0.8 0.7,1.5 1.5,1.5s1.5,-0.7 1.5,-1.5l0,-14.1l-3,0l0,5.9l0.1,0z" fill="#4F4E52" id="svg_11"/>
   </svg>
  </g>
  <g id="svg_3">
   <svg fill="#f3f3f3" height="16.34" id="svg_12" viewBox="1.5699999332427979 3.9100000858306885 313.6099853515625 16.34000015258789" width="313.61" x="154" y="143.71">
    <g fill="#4F4E52" id="svg_13">
     <path d="m2.88,16.83l-0.9,0q-0.2,0 -0.31,-0.12q-0.1,-0.11 -0.1,-0.29l0,0l0,-11.76q0,-0.2 0.1,-0.31q0.11,-0.12 0.31,-0.12l0,0l7.34,0q0.2,0 0.32,0.12q0.12,0.11 0.12,0.31l0,0l0,0.72q0,0.2 -0.12,0.31q-0.12,0.11 -0.32,0.11l0,0l-6.01,0l0,4.19l5.65,0q0.2,0 0.32,0.12q0.12,0.11 0.12,0.31l0,0l0,0.72q0,0.18 -0.12,0.3q-0.12,0.12 -0.32,0.12l0,0l-5.65,0l0,4.86q0,0.18 -0.11,0.29q-0.12,0.12 -0.32,0.12l0,0zm10.26,0l-0.88,0q-0.18,0 -0.3,-0.12q-0.12,-0.11 -0.12,-0.29l0,0l0,-8.52q0,-0.18 0.12,-0.3q0.12,-0.13 0.3,-0.13l0,0l0.83,0q0.18,0 0.3,0.13q0.13,0.12 0.13,0.3l0,0l0,0.79q0.36,-0.61 0.99,-0.91q0.63,-0.31 1.53,-0.31l0,0l0.7,0q0.18,0 0.3,0.12q0.11,0.11 0.11,0.29l0,0l0,0.74q0,0.18 -0.11,0.29q-0.12,0.11 -0.3,0.11l0,0l-1.08,0q-0.97,0 -1.53,0.57q-0.56,0.56 -0.56,1.53l0,0l0,5.3q0,0.18 -0.12,0.29q-0.13,0.12 -0.31,0.12l0,0zm9.38,0.18l0,0q-1.37,0 -2.29,-0.52q-0.92,-0.52 -1.4,-1.45q-0.49,-0.93 -0.54,-2.12l0,0q-0.02,-0.3 -0.02,-0.78q0,-0.48 0.02,-0.76l0,0q0.05,-1.21 0.55,-2.13q0.49,-0.92 1.41,-1.44q0.92,-0.52 2.27,-0.52l0,0q1.35,0 2.27,0.52q0.91,0.52 1.41,1.44q0.49,0.92 0.55,2.13l0,0q0.02,0.28 0.02,0.76q0,0.48 -0.02,0.78l0,0q-0.06,1.19 -0.54,2.12q-0.49,0.93 -1.41,1.45q-0.91,0.52 -2.28,0.52zm0,-1.39l0,0q1.11,0 1.78,-0.71q0.67,-0.71 0.72,-2.08l0,0q0.02,-0.27 0.02,-0.68q0,-0.41 -0.02,-0.68l0,0q-0.05,-1.37 -0.72,-2.08q-0.67,-0.71 -1.78,-0.71l0,0q-1.12,0 -1.79,0.71q-0.68,0.71 -0.71,2.08l0,0q-0.02,0.27 -0.02,0.68q0,0.41 0.02,0.68l0,0q0.03,1.37 0.71,2.08q0.67,0.71 1.79,0.71zm7.77,1.21l-0.86,0q-0.18,0 -0.3,-0.12q-0.11,-0.11 -0.11,-0.29l0,0l0,-8.54q0,-0.18 0.11,-0.29q0.12,-0.12 0.3,-0.12l0,0l0.81,0q0.18,0 0.3,0.12q0.11,0.11 0.11,0.29l0,0l0,0.63q0.42,-0.55 1.05,-0.89q0.63,-0.33 1.51,-0.33l0,0q2.03,-0.02 2.88,1.66l0,0q0.41,-0.76 1.21,-1.21q0.79,-0.45 1.8,-0.45l0,0q0.93,0 1.7,0.43q0.76,0.43 1.2,1.31q0.44,0.87 0.44,2.18l0,0l0,5.21q0,0.18 -0.11,0.29q-0.12,0.12 -0.3,0.12l0,0l-0.85,0q-0.18,0 -0.29,-0.12q-0.12,-0.11 -0.12,-0.29l0,0l0,-5.04q0,-1.01 -0.29,-1.59q-0.29,-0.57 -0.77,-0.81q-0.49,-0.23 -1.06,-0.23l0,0q-0.47,0 -0.96,0.23q-0.48,0.24 -0.8,0.81q-0.31,0.58 -0.31,1.59l0,0l0,5.04q0,0.18 -0.12,0.29q-0.12,0.12 -0.3,0.12l0,0l-0.84,0q-0.18,0 -0.3,-0.12q-0.12,-0.11 -0.12,-0.29l0,0l0,-5.04q0,-1.01 -0.3,-1.59q-0.31,-0.57 -0.8,-0.81q-0.48,-0.23 -1.02,-0.23l0,0q-0.47,0 -0.96,0.23q-0.48,0.24 -0.8,0.81q-0.31,0.58 -0.31,1.57l0,0l0,5.06q0,0.18 -0.12,0.29q-0.12,0.12 -0.3,0.12l0,0zm25.89,0l-6.93,0q-0.18,0 -0.3,-0.12q-0.12,-0.11 -0.12,-0.29l0,0l0,-0.63q0,-0.17 0.09,-0.31q0.08,-0.14 0.17,-0.27l0,0l4.96,-6.32l-4.64,0q-0.18,0 -0.3,-0.11q-0.11,-0.1 -0.11,-0.3l0,0l0,-0.6q0,-0.18 0.11,-0.29q0.12,-0.12 0.3,-0.12l0,0l6.41,0q0.18,0 0.3,0.12q0.11,0.11 0.11,0.29l0,0l0,0.67q0,0.16 -0.08,0.29q-0.08,0.12 -0.17,0.27l0,0l-4.91,6.3l5.11,0q0.2,0 0.3,0.11q0.11,0.1 0.11,0.3l0,0l0,0.6q0,0.18 -0.11,0.29q-0.1,0.12 -0.3,0.12l0,0zm6.15,0.18l0,0q-1.87,0 -2.97,-1.14q-1.09,-1.15 -1.2,-3.13l0,0q-0.02,-0.23 -0.02,-0.6q0,-0.37 0.02,-0.6l0,0q0.07,-1.28 0.59,-2.24q0.52,-0.97 1.43,-1.49q0.91,-0.52 2.14,-0.52l0,0q1.36,0 2.29,0.58q0.93,0.57 1.41,1.63q0.49,1.07 0.49,2.49l0,0l0,0.3q0,0.2 -0.12,0.31q-0.11,0.11 -0.29,0.11l0,0l-6.23,0q0,0.02 0,0.07q0,0.05 0,0.09l0,0q0.03,0.74 0.32,1.38q0.29,0.64 0.84,1.03q0.55,0.4 1.29,0.4l0,0q0.64,0 1.08,-0.2q0.43,-0.2 0.7,-0.44q0.27,-0.24 0.36,-0.39l0,0q0.16,-0.21 0.25,-0.26q0.09,-0.04 0.29,-0.04l0,0l0.88,0q0.16,0 0.28,0.1q0.12,0.09 0.1,0.27l0,0q-0.02,0.27 -0.29,0.66q-0.27,0.39 -0.77,0.77q-0.49,0.37 -1.22,0.62q-0.73,0.24 -1.65,0.24zm-2.46,-5.6l0,0.06l4.93,0l0,-0.06q0,-0.81 -0.3,-1.44q-0.29,-0.63 -0.85,-1q-0.56,-0.37 -1.33,-0.37l0,0q-0.78,0 -1.33,0.37q-0.55,0.37 -0.83,1q-0.29,0.63 -0.29,1.44l0,0zm10.1,5.42l-0.89,0q-0.18,0 -0.29,-0.12q-0.12,-0.11 -0.12,-0.29l0,0l0,-8.52q0,-0.18 0.12,-0.3q0.11,-0.13 0.29,-0.13l0,0l0.83,0q0.18,0 0.31,0.13q0.12,0.12 0.12,0.3l0,0l0,0.79q0.36,-0.61 0.99,-0.91q0.63,-0.31 1.53,-0.31l0,0l0.71,0q0.18,0 0.29,0.12q0.12,0.11 0.12,0.29l0,0l0,0.74q0,0.18 -0.12,0.29q-0.11,0.11 -0.29,0.11l0,0l-1.08,0q-0.98,0 -1.53,0.57q-0.56,0.56 -0.56,1.53l0,0l0,5.3q0,0.18 -0.13,0.29q-0.12,0.12 -0.3,0.12l0,0zm9.37,0.18l0,0q-1.36,0 -2.28,-0.52q-0.92,-0.52 -1.41,-1.45q-0.48,-0.93 -0.54,-2.12l0,0q-0.01,-0.3 -0.01,-0.78q0,-0.48 0.01,-0.76l0,0q0.06,-1.21 0.55,-2.13q0.5,-0.92 1.42,-1.44q0.91,-0.52 2.26,-0.52l0,0q1.35,0 2.27,0.52q0.92,0.52 1.42,1.44q0.49,0.92 0.54,2.13l0,0q0.02,0.28 0.02,0.76q0,0.48 -0.02,0.78l0,0q-0.05,1.19 -0.54,2.12q-0.48,0.93 -1.4,1.45q-0.92,0.52 -2.29,0.52zm0,-1.39l0,0q1.12,0 1.79,-0.71q0.66,-0.71 0.72,-2.08l0,0q0.01,-0.27 0.01,-0.68q0,-0.41 -0.01,-0.68l0,0q-0.06,-1.37 -0.72,-2.08q-0.67,-0.71 -1.79,-0.71l0,0q-1.11,0 -1.79,0.71q-0.67,0.71 -0.71,2.08l0,0q-0.02,0.27 -0.02,0.68q0,0.41 0.02,0.68l0,0q0.04,1.37 0.71,2.08q0.68,0.71 1.79,0.71zm15.81,1.21l-1.24,0q-1.01,0 -1.64,-0.39q-0.63,-0.38 -0.92,-1.09q-0.29,-0.72 -0.29,-1.69l0,0l0,-4.75l-1.4,0q-0.18,0 -0.3,-0.12q-0.12,-0.11 -0.12,-0.29l0,0l0,-0.62q0,-0.18 0.12,-0.29q0.12,-0.12 0.3,-0.12l0,0l1.4,0l0,-3.01q0,-0.18 0.12,-0.29q0.12,-0.12 0.3,-0.12l0,0l0.84,0q0.18,0 0.3,0.12q0.12,0.11 0.12,0.29l0,0l0,3.01l2.23,0q0.2,0 0.3,0.12q0.11,0.11 0.11,0.29l0,0l0,0.62q0,0.18 -0.11,0.29q-0.1,0.12 -0.3,0.12l0,0l-2.23,0l0,4.63q0,0.84 0.28,1.33q0.29,0.48 1.03,0.48l0,0l1.1,0q0.18,0 0.3,0.12q0.11,0.12 0.11,0.3l0,0l0,0.65q0,0.18 -0.11,0.29q-0.12,0.12 -0.3,0.12l0,0zm5.97,0.18l0,0q-1.36,0 -2.28,-0.52q-0.92,-0.52 -1.41,-1.45q-0.48,-0.93 -0.54,-2.12l0,0q-0.01,-0.3 -0.01,-0.78q0,-0.48 0.01,-0.76l0,0q0.06,-1.21 0.55,-2.13q0.5,-0.92 1.42,-1.44q0.91,-0.52 2.26,-0.52l0,0q1.35,0 2.27,0.52q0.92,0.52 1.42,1.44q0.49,0.92 0.54,2.13l0,0q0.02,0.28 0.02,0.76q0,0.48 -0.02,0.78l0,0q-0.05,1.19 -0.54,2.12q-0.48,0.93 -1.4,1.45q-0.92,0.52 -2.29,0.52zm0,-1.39l0,0q1.12,0 1.79,-0.71q0.66,-0.71 0.72,-2.08l0,0q0.01,-0.27 0.01,-0.68q0,-0.41 -0.01,-0.68l0,0q-0.06,-1.37 -0.72,-2.08q-0.67,-0.71 -1.79,-0.71l0,0q-1.11,0 -1.79,0.71q-0.67,0.71 -0.71,2.08l0,0q-0.02,0.27 -0.02,0.68q0,0.41 0.02,0.68l0,0q0.04,1.37 0.71,2.08q0.68,0.71 1.79,0.71zm14.33,1.39l0,0q-0.99,0 -1.71,-0.35q-0.72,-0.35 -1.18,-0.95q-0.46,-0.61 -0.68,-1.38q-0.23,-0.78 -0.26,-1.64l0,0q-0.02,-0.29 -0.02,-0.54q0,-0.25 0.02,-0.54l0,0q0.03,-0.85 0.26,-1.62q0.22,-0.77 0.68,-1.39q0.46,-0.61 1.18,-0.96q0.72,-0.35 1.71,-0.35l0,0q1.06,0 1.77,0.38q0.7,0.38 1.15,0.93l0,0l0,-4.14q0,-0.18 0.12,-0.29q0.11,-0.12 0.29,-0.12l0,0l0.87,0q0.18,0 0.29,0.12q0.12,0.11 0.12,0.29l0,0l0,11.96q0,0.18 -0.12,0.29q-0.11,0.12 -0.29,0.12l0,0l-0.81,0q-0.2,0 -0.31,-0.12q-0.11,-0.11 -0.11,-0.29l0,0l0,-0.76q-0.45,0.58 -1.17,0.96q-0.72,0.39 -1.8,0.39zm0.38,-1.46l0,0q0.9,0 1.44,-0.41q0.54,-0.42 0.81,-1.05q0.27,-0.64 0.29,-1.31l0,0q0.02,-0.29 0.02,-0.69q0,-0.41 -0.02,-0.7l0,0q-0.02,-0.63 -0.3,-1.24q-0.28,-0.61 -0.83,-1.01q-0.55,-0.39 -1.41,-0.39l0,0q-0.92,0 -1.46,0.4q-0.54,0.41 -0.77,1.06q-0.24,0.66 -0.27,1.42l0,0q-0.02,0.52 0,1.04l0,0q0.03,0.76 0.27,1.42q0.23,0.65 0.77,1.06q0.54,0.4 1.46,0.4zm10.66,1.46l0,0q-1.88,0 -2.97,-1.14q-1.1,-1.15 -1.21,-3.13l0,0q-0.02,-0.23 -0.02,-0.6q0,-0.37 0.02,-0.6l0,0q0.07,-1.28 0.59,-2.24q0.53,-0.97 1.44,-1.49q0.9,-0.52 2.13,-0.52l0,0q1.37,0 2.29,0.58q0.93,0.57 1.42,1.63q0.48,1.07 0.48,2.49l0,0l0,0.3q0,0.2 -0.11,0.31q-0.12,0.11 -0.3,0.11l0,0l-6.23,0q0,0.02 0,0.07q0,0.05 0,0.09l0,0q0.04,0.74 0.32,1.38q0.29,0.64 0.84,1.03q0.55,0.4 1.29,0.4l0,0q0.65,0 1.08,-0.2q0.43,-0.2 0.7,-0.44q0.27,-0.24 0.36,-0.39l0,0q0.16,-0.21 0.25,-0.26q0.09,-0.04 0.29,-0.04l0,0l0.88,0q0.16,0 0.28,0.1q0.12,0.09 0.1,0.27l0,0q-0.02,0.27 -0.29,0.66q-0.27,0.39 -0.76,0.77q-0.5,0.37 -1.23,0.62q-0.73,0.24 -1.64,0.24zm-2.47,-5.6l0,0.06l4.93,0l0,-0.06q0,-0.81 -0.29,-1.44q-0.3,-0.63 -0.86,-1q-0.56,-0.37 -1.33,-0.37l0,0q-0.78,0 -1.32,0.37q-0.55,0.37 -0.84,1q-0.29,0.63 -0.29,1.44l0,0zm10.12,8.84l-0.89,0q-0.18,0 -0.29,-0.12q-0.12,-0.11 -0.12,-0.29l0,0l0,-11.96q0,-0.18 0.12,-0.29q0.11,-0.12 0.29,-0.12l0,0l0.83,0q0.18,0 0.3,0.12q0.12,0.11 0.12,0.29l0,0l0,0.8q0.43,-0.6 1.15,-0.99q0.72,-0.4 1.8,-0.4l0,0q1.01,0 1.72,0.34q0.71,0.34 1.17,0.94q0.46,0.59 0.69,1.35q0.23,0.75 0.27,1.62l0,0q0.02,0.29 0.02,0.61q0,0.32 -0.02,0.61l0,0q-0.04,0.85 -0.27,1.61q-0.23,0.77 -0.69,1.35q-0.46,0.59 -1.17,0.94q-0.71,0.35 -1.72,0.35l0,0q-1.05,0 -1.76,-0.39q-0.71,-0.38 -1.16,-0.96l0,0l0,4.18q0,0.18 -0.11,0.29q-0.1,0.12 -0.28,0.12l0,0zm2.93,-4.7l0,0q0.94,0 1.47,-0.4q0.53,-0.41 0.76,-1.06q0.24,-0.66 0.27,-1.42l0,0q0.02,-0.52 0,-1.04l0,0q-0.03,-0.76 -0.27,-1.42q-0.23,-0.65 -0.76,-1.06q-0.53,-0.4 -1.47,-0.4l0,0q-0.88,0 -1.43,0.41q-0.55,0.42 -0.81,1.05q-0.26,0.64 -0.3,1.31l0,0q-0.02,0.29 -0.02,0.68q0,0.4 0.02,0.71l0,0q0.02,0.63 0.3,1.24q0.28,0.61 0.84,1.01q0.55,0.39 1.4,0.39zm7.76,1.28l-0.85,0q-0.18,0 -0.29,-0.12q-0.12,-0.11 -0.12,-0.29l0,0l0,-11.96q0,-0.18 0.12,-0.29q0.11,-0.12 0.29,-0.12l0,0l0.85,0q0.2,0 0.3,0.12q0.11,0.11 0.11,0.29l0,0l0,11.96q0,0.18 -0.11,0.29q-0.1,0.12 -0.3,0.12l0,0zm6.93,0.18l0,0q-1.37,0 -2.29,-0.52q-0.92,-0.52 -1.4,-1.45q-0.49,-0.93 -0.54,-2.12l0,0q-0.02,-0.3 -0.02,-0.78q0,-0.48 0.02,-0.76l0,0q0.05,-1.21 0.55,-2.13q0.49,-0.92 1.41,-1.44q0.92,-0.52 2.27,-0.52l0,0q1.35,0 2.27,0.52q0.91,0.52 1.41,1.44q0.49,0.92 0.55,2.13l0,0q0.02,0.28 0.02,0.76q0,0.48 -0.02,0.78l0,0q-0.06,1.19 -0.54,2.12q-0.49,0.93 -1.41,1.45q-0.91,0.52 -2.28,0.52zm0,-1.39l0,0q1.11,0 1.78,-0.71q0.67,-0.71 0.72,-2.08l0,0q0.02,-0.27 0.02,-0.68q0,-0.41 -0.02,-0.68l0,0q-0.05,-1.37 -0.72,-2.08q-0.67,-0.71 -1.78,-0.71l0,0q-1.12,0 -1.79,0.71q-0.68,0.71 -0.71,2.08l0,0q-0.02,0.27 -0.02,0.68q0,0.41 0.02,0.68l0,0q0.03,1.37 0.71,2.08q0.67,0.71 1.79,0.71zm8.98,4.63l-0.85,0q-0.14,0 -0.25,-0.11q-0.11,-0.11 -0.11,-0.25l0,0q0,-0.07 0.02,-0.14q0.02,-0.08 0.07,-0.18l0,0l1.39,-3.3l-3.44,-8.12q-0.09,-0.21 -0.09,-0.3l0,0q0,-0.16 0.11,-0.27q0.11,-0.11 0.27,-0.11l0,0l0.88,0q0.2,0 0.3,0.09q0.1,0.09 0.13,0.22l0,0l2.74,6.55l2.81,-6.55q0.05,-0.13 0.15,-0.22q0.1,-0.09 0.3,-0.09l0,0l0.84,0q0.17,0 0.27,0.11q0.11,0.11 0.11,0.25l0,0q0,0.09 -0.09,0.32l0,0l-5.11,11.79q-0.05,0.13 -0.15,0.22q-0.1,0.09 -0.3,0.09l0,0zm11.2,-3.24l0,0q-1.88,0 -2.97,-1.14q-1.1,-1.15 -1.21,-3.13l0,0q-0.02,-0.23 -0.02,-0.6q0,-0.37 0.02,-0.6l0,0q0.07,-1.28 0.59,-2.24q0.53,-0.97 1.44,-1.49q0.9,-0.52 2.13,-0.52l0,0q1.37,0 2.29,0.58q0.93,0.57 1.42,1.63q0.48,1.07 0.48,2.49l0,0l0,0.3q0,0.2 -0.11,0.31q-0.12,0.11 -0.3,0.11l0,0l-6.23,0q0,0.02 0,0.07q0,0.05 0,0.09l0,0q0.04,0.74 0.32,1.38q0.29,0.64 0.84,1.03q0.55,0.4 1.29,0.4l0,0q0.65,0 1.08,-0.2q0.43,-0.2 0.7,-0.44q0.27,-0.24 0.36,-0.39l0,0q0.16,-0.21 0.25,-0.26q0.09,-0.04 0.29,-0.04l0,0l0.88,0q0.16,0 0.28,0.1q0.12,0.09 0.1,0.27l0,0q-0.02,0.27 -0.29,0.66q-0.27,0.39 -0.76,0.77q-0.5,0.37 -1.23,0.62q-0.73,0.24 -1.64,0.24zm-2.47,-5.6l0,0.06l4.93,0l0,-0.06q0,-0.81 -0.29,-1.44q-0.3,-0.63 -0.86,-1q-0.56,-0.37 -1.33,-0.37l0,0q-0.78,0 -1.32,0.37q-0.55,0.37 -0.84,1q-0.29,0.63 -0.29,1.44l0,0zm12.22,5.6l0,0q-0.99,0 -1.71,-0.35q-0.72,-0.35 -1.18,-0.95q-0.46,-0.61 -0.68,-1.38q-0.23,-0.78 -0.26,-1.64l0,0q-0.02,-0.29 -0.02,-0.54q0,-0.25 0.02,-0.54l0,0q0.03,-0.85 0.26,-1.62q0.22,-0.77 0.68,-1.39q0.46,-0.61 1.18,-0.96q0.72,-0.35 1.71,-0.35l0,0q1.06,0 1.77,0.38q0.7,0.38 1.15,0.93l0,0l0,-4.14q0,-0.18 0.12,-0.29q0.11,-0.12 0.29,-0.12l0,0l0.87,0q0.18,0 0.29,0.12q0.12,0.11 0.12,0.29l0,0l0,11.96q0,0.18 -0.12,0.29q-0.11,0.12 -0.29,0.12l0,0l-0.81,0q-0.2,0 -0.31,-0.12q-0.11,-0.11 -0.11,-0.29l0,0l0,-0.76q-0.45,0.58 -1.17,0.96q-0.72,0.39 -1.8,0.39zm0.38,-1.46l0,0q0.9,0 1.44,-0.41q0.54,-0.42 0.81,-1.05q0.27,-0.64 0.29,-1.31l0,0q0.02,-0.29 0.02,-0.69q0,-0.41 -0.02,-0.7l0,0q-0.02,-0.63 -0.3,-1.24q-0.28,-0.61 -0.83,-1.01q-0.55,-0.39 -1.41,-0.39l0,0q-0.92,0 -1.46,0.4q-0.54,0.41 -0.77,1.06q-0.24,0.66 -0.27,1.42l0,0q-0.02,0.52 0,1.04l0,0q0.03,0.76 0.27,1.42q0.23,0.65 0.77,1.06q0.54,0.4 1.46,0.4zm13.93,1.46l0,0q-0.9,0 -1.64,-0.36q-0.73,-0.36 -1.18,-0.97q-0.45,-0.61 -0.45,-1.39l0,0q0,-1.24 1,-1.98q1.01,-0.74 2.63,-0.97l0,0l2.68,-0.38l0,-0.52q0,-0.86 -0.49,-1.35q-0.5,-0.49 -1.61,-0.49l0,0q-0.79,0 -1.3,0.33q-0.5,0.32 -0.7,0.83l0,0q-0.11,0.27 -0.38,0.27l0,0l-0.81,0q-0.2,0 -0.29,-0.12q-0.1,-0.12 -0.1,-0.28l0,0q0,-0.27 0.2,-0.67q0.21,-0.39 0.64,-0.77q0.43,-0.38 1.11,-0.64q0.67,-0.26 1.65,-0.26l0,0q1.08,0 1.81,0.28q0.74,0.28 1.17,0.75q0.42,0.46 0.61,1.06q0.19,0.59 0.19,1.2l0,0l0,5.84q0,0.18 -0.12,0.29q-0.12,0.12 -0.3,0.12l0,0l-0.83,0q-0.19,0 -0.3,-0.12q-0.11,-0.11 -0.11,-0.29l0,0l0,-0.78q-0.23,0.33 -0.63,0.64q-0.4,0.32 -0.99,0.52q-0.59,0.21 -1.46,0.21zm0.38,-1.35l0,0q0.74,0 1.35,-0.31q0.61,-0.32 0.96,-0.99q0.35,-0.66 0.35,-1.67l0,0l0,-0.5l-2.08,0.3q-1.28,0.18 -1.93,0.61q-0.65,0.42 -0.65,1.07l0,0q0,0.5 0.3,0.83q0.3,0.34 0.76,0.5q0.45,0.16 0.94,0.16zm8.26,4.59l-0.88,0q-0.18,0 -0.3,-0.12q-0.11,-0.11 -0.11,-0.29l0,0l0,-11.96q0,-0.18 0.11,-0.29q0.12,-0.12 0.3,-0.12l0,0l0.83,0q0.18,0 0.3,0.12q0.11,0.11 0.11,0.29l0,0l0,0.8q0.43,-0.6 1.15,-0.99q0.72,-0.4 1.8,-0.4l0,0q1.01,0 1.72,0.34q0.71,0.34 1.17,0.94q0.46,0.59 0.7,1.35q0.23,0.75 0.27,1.62l0,0q0.01,0.29 0.01,0.61q0,0.32 -0.01,0.61l0,0q-0.04,0.85 -0.27,1.61q-0.24,0.77 -0.7,1.35q-0.46,0.59 -1.17,0.94q-0.71,0.35 -1.72,0.35l0,0q-1.04,0 -1.75,-0.39q-0.71,-0.38 -1.16,-0.96l0,0l0,4.18q0,0.18 -0.11,0.29q-0.11,0.12 -0.29,0.12l0,0zm2.94,-4.7l0,0q0.93,0 1.46,-0.4q0.53,-0.41 0.77,-1.06q0.23,-0.66 0.27,-1.42l0,0q0.02,-0.52 0,-1.04l0,0q-0.04,-0.76 -0.27,-1.42q-0.24,-0.65 -0.77,-1.06q-0.53,-0.4 -1.46,-0.4l0,0q-0.89,0 -1.43,0.41q-0.55,0.42 -0.81,1.05q-0.27,0.64 -0.3,1.31l0,0q-0.02,0.29 -0.02,0.68q0,0.4 0.02,0.71l0,0q0.02,0.63 0.3,1.24q0.27,0.61 0.83,1.01q0.56,0.39 1.41,0.39zm7.79,4.7l-0.88,0q-0.18,0 -0.3,-0.12q-0.12,-0.11 -0.12,-0.29l0,0l0,-11.96q0,-0.18 0.12,-0.29q0.12,-0.12 0.3,-0.12l0,0l0.83,0q0.18,0 0.29,0.12q0.12,0.11 0.12,0.29l0,0l0,0.8q0.43,-0.6 1.15,-0.99q0.72,-0.4 1.8,-0.4l0,0q1.01,0 1.72,0.34q0.71,0.34 1.17,0.94q0.46,0.59 0.69,1.35q0.24,0.75 0.27,1.62l0,0q0.02,0.29 0.02,0.61q0,0.32 -0.02,0.61l0,0q-0.03,0.85 -0.27,1.61q-0.23,0.77 -0.69,1.35q-0.46,0.59 -1.17,0.94q-0.71,0.35 -1.72,0.35l0,0q-1.04,0 -1.75,-0.39q-0.71,-0.38 -1.16,-0.96l0,0l0,4.18q0,0.18 -0.11,0.29q-0.11,0.12 -0.29,0.12l0,0zm2.93,-4.7l0,0q0.94,0 1.47,-0.4q0.53,-0.41 0.77,-1.06q0.23,-0.66 0.27,-1.42l0,0q0.01,-0.52 0,-1.04l0,0q-0.04,-0.76 -0.27,-1.42q-0.24,-0.65 -0.77,-1.06q-0.53,-0.4 -1.47,-0.4l0,0q-0.88,0 -1.43,0.41q-0.55,0.42 -0.81,1.05q-0.26,0.64 -0.29,1.31l0,0q-0.02,0.29 -0.02,0.68q0,0.4 0.02,0.71l0,0q0.01,0.63 0.29,1.24q0.28,0.61 0.84,1.01q0.56,0.39 1.4,0.39zm12.17,1.28l-0.86,0q-0.18,0 -0.3,-0.12q-0.12,-0.11 -0.12,-0.29l0,0l0,-8.54q0,-0.18 0.12,-0.29q0.12,-0.12 0.3,-0.12l0,0l0.86,0q0.18,0 0.3,0.12q0.12,0.11 0.12,0.29l0,0l0,8.54q0,0.18 -0.12,0.29q-0.12,0.12 -0.3,0.12l0,0zm0.13,-11.11l-1.14,0q-0.18,0 -0.29,-0.11q-0.12,-0.12 -0.12,-0.3l0,0l0,-0.97q0,-0.18 0.12,-0.31q0.11,-0.12 0.29,-0.12l0,0l1.14,0q0.18,0 0.3,0.12q0.13,0.13 0.13,0.31l0,0l0,0.97q0,0.18 -0.13,0.3q-0.12,0.11 -0.3,0.11l0,0zm4.26,11.11l-0.9,0q-0.18,0 -0.29,-0.12q-0.12,-0.11 -0.12,-0.29l0,0l0,-8.54q0,-0.18 0.12,-0.29q0.11,-0.12 0.29,-0.12l0,0l0.85,0q0.18,0 0.3,0.12q0.11,0.11 0.11,0.29l0,0l0,0.8q0.47,-0.62 1.18,-1q0.71,-0.39 1.83,-0.39l0,0q1.17,0 1.99,0.51q0.82,0.52 1.24,1.43q0.42,0.9 0.42,2.11l0,0l0,5.08q0,0.18 -0.11,0.29q-0.12,0.12 -0.3,0.12l0,0l-0.9,0q-0.18,0 -0.3,-0.12q-0.11,-0.11 -0.11,-0.29l0,0l0,-4.99q0,-1.26 -0.62,-1.97q-0.61,-0.71 -1.8,-0.71l0,0q-1.11,0 -1.79,0.71q-0.67,0.71 -0.67,1.97l0,0l0,4.99q0,0.18 -0.12,0.29q-0.12,0.12 -0.3,0.12l0,0zm15.29,0l-0.87,0q-0.18,0 -0.29,-0.12q-0.12,-0.11 -0.12,-0.29l0,0l0,-8.54q0,-0.18 0.12,-0.29q0.11,-0.12 0.29,-0.12l0,0l0.81,0q0.18,0 0.3,0.12q0.12,0.11 0.12,0.29l0,0l0,0.63q0.41,-0.55 1.04,-0.89q0.63,-0.33 1.51,-0.33l0,0q2.04,-0.02 2.88,1.66l0,0q0.42,-0.76 1.21,-1.21q0.79,-0.45 1.8,-0.45l0,0q0.93,0 1.7,0.43q0.76,0.43 1.21,1.31q0.44,0.87 0.44,2.18l0,0l0,5.21q0,0.18 -0.12,0.29q-0.12,0.12 -0.3,0.12l0,0l-0.84,0q-0.18,0 -0.3,-0.12q-0.12,-0.11 -0.12,-0.29l0,0l0,-5.04q0,-1.01 -0.29,-1.59q-0.28,-0.57 -0.77,-0.81q-0.49,-0.23 -1.06,-0.23l0,0q-0.47,0 -0.96,0.23q-0.48,0.24 -0.8,0.81q-0.31,0.58 -0.31,1.59l0,0l0,5.04q0,0.18 -0.12,0.29q-0.12,0.12 -0.3,0.12l0,0l-0.84,0q-0.18,0 -0.3,-0.12q-0.12,-0.11 -0.12,-0.29l0,0l0,-5.04q0,-1.01 -0.3,-1.59q-0.31,-0.57 -0.79,-0.81q-0.49,-0.23 -1.03,-0.23l0,0q-0.47,0 -0.95,0.23q-0.49,0.24 -0.8,0.81q-0.32,0.58 -0.32,1.57l0,0l0,5.06q0,0.18 -0.12,0.29q-0.11,0.12 -0.29,0.12l0,0zm16,0l-0.87,0q-0.18,0 -0.29,-0.12q-0.12,-0.11 -0.12,-0.29l0,0l0,-8.54q0,-0.18 0.12,-0.29q0.11,-0.12 0.29,-0.12l0,0l0.87,0q0.18,0 0.3,0.12q0.11,0.11 0.11,0.29l0,0l0,8.54q0,0.18 -0.11,0.29q-0.12,0.12 -0.3,0.12l0,0zm0.12,-11.11l-1.13,0q-0.18,0 -0.3,-0.11q-0.11,-0.12 -0.11,-0.3l0,0l0,-0.97q0,-0.18 0.11,-0.31q0.12,-0.12 0.3,-0.12l0,0l1.13,0q0.18,0 0.31,0.12q0.13,0.13 0.13,0.31l0,0l0,0.97q0,0.18 -0.13,0.3q-0.13,0.11 -0.31,0.11l0,0zm4.27,11.11l-0.9,0q-0.18,0 -0.3,-0.12q-0.11,-0.11 -0.11,-0.29l0,0l0,-8.54q0,-0.18 0.11,-0.29q0.12,-0.12 0.3,-0.12l0,0l0.85,0q0.18,0 0.29,0.12q0.12,0.11 0.12,0.29l0,0l0,0.8q0.47,-0.62 1.18,-1q0.71,-0.39 1.83,-0.39l0,0q1.17,0 1.99,0.51q0.81,0.52 1.24,1.43q0.42,0.9 0.42,2.11l0,0l0,5.08q0,0.18 -0.12,0.29q-0.11,0.12 -0.29,0.12l0,0l-0.9,0q-0.18,0 -0.3,-0.12q-0.12,-0.11 -0.12,-0.29l0,0l0,-4.99q0,-1.26 -0.61,-1.97q-0.61,-0.71 -1.8,-0.71l0,0q-1.12,0 -1.79,0.71q-0.68,0.71 -0.68,1.97l0,0l0,4.99q0,0.18 -0.11,0.29q-0.12,0.12 -0.3,0.12l0,0zm13.09,0.18l0,0q-1.16,0 -1.96,-0.51q-0.8,-0.52 -1.21,-1.43q-0.42,-0.92 -0.42,-2.11l0,0l0,-5.08q0,-0.18 0.12,-0.29q0.12,-0.12 0.3,-0.12l0,0l0.9,0q0.18,0 0.3,0.12q0.11,0.11 0.11,0.29l0,0l0,4.99q0,2.68 2.34,2.68l0,0q1.12,0 1.79,-0.71q0.68,-0.71 0.68,-1.97l0,0l0,-4.99q0,-0.18 0.12,-0.29q0.11,-0.12 0.29,-0.12l0,0l0.9,0q0.18,0 0.29,0.12q0.11,0.11 0.11,0.29l0,0l0,8.54q0,0.18 -0.11,0.29q-0.11,0.12 -0.29,0.12l0,0l-0.84,0q-0.18,0 -0.3,-0.12q-0.12,-0.11 -0.12,-0.29l0,0l0,-0.8q-0.48,0.63 -1.18,1.01q-0.69,0.38 -1.82,0.38zm12.24,-0.18l-1.25,0q-1,0 -1.63,-0.39q-0.63,-0.38 -0.92,-1.09q-0.29,-0.72 -0.29,-1.69l0,0l0,-4.75l-1.4,0q-0.18,0 -0.3,-0.12q-0.12,-0.11 -0.12,-0.29l0,0l0,-0.62q0,-0.18 0.12,-0.29q0.12,-0.12 0.3,-0.12l0,0l1.4,0l0,-3.01q0,-0.18 0.12,-0.29q0.11,-0.12 0.29,-0.12l0,0l0.85,0q0.18,0 0.3,0.12q0.11,0.11 0.11,0.29l0,0l0,3.01l2.24,0q0.19,0 0.3,0.12q0.11,0.11 0.11,0.29l0,0l0,0.62q0,0.18 -0.11,0.29q-0.11,0.12 -0.3,0.12l0,0l-2.24,0l0,4.63q0,0.84 0.29,1.33q0.29,0.48 1.03,0.48l0,0l1.1,0q0.18,0 0.29,0.12q0.12,0.12 0.12,0.3l0,0l0,0.65q0,0.18 -0.12,0.29q-0.11,0.12 -0.29,0.12l0,0zm5.88,0.18l0,0q-1.87,0 -2.97,-1.14q-1.1,-1.15 -1.2,-3.13l0,0q-0.02,-0.23 -0.02,-0.6q0,-0.37 0.02,-0.6l0,0q0.07,-1.28 0.59,-2.24q0.52,-0.97 1.43,-1.49q0.91,-0.52 2.13,-0.52l0,0q1.37,0 2.3,0.58q0.93,0.57 1.41,1.63q0.49,1.07 0.49,2.49l0,0l0,0.3q0,0.2 -0.12,0.31q-0.12,0.11 -0.3,0.11l0,0l-6.22,0q0,0.02 0,0.07q0,0.05 0,0.09l0,0q0.03,0.74 0.32,1.38q0.29,0.64 0.84,1.03q0.55,0.4 1.28,0.4l0,0q0.65,0 1.08,-0.2q0.44,-0.2 0.71,-0.44q0.27,-0.24 0.36,-0.39l0,0q0.16,-0.21 0.25,-0.26q0.09,-0.04 0.29,-0.04l0,0l0.88,0q0.16,0 0.28,0.1q0.11,0.09 0.1,0.27l0,0q-0.02,0.27 -0.29,0.66q-0.27,0.39 -0.77,0.77q-0.49,0.37 -1.22,0.62q-0.73,0.24 -1.65,0.24zm-2.46,-5.6l0,0.06l4.93,0l0,-0.06q0,-0.81 -0.3,-1.44q-0.3,-0.63 -0.85,-1q-0.56,-0.37 -1.34,-0.37l0,0q-0.77,0 -1.32,0.37q-0.55,0.37 -0.84,1q-0.28,0.63 -0.28,1.44l0,0zm12.04,5.6l0,0q-1.01,0 -1.73,-0.25q-0.72,-0.25 -1.17,-0.61q-0.45,-0.36 -0.67,-0.72q-0.23,-0.36 -0.25,-0.58l0,0q-0.02,-0.2 0.13,-0.31q0.14,-0.1 0.29,-0.1l0,0l0.81,0q0.09,0 0.15,0.02q0.06,0.03 0.17,0.16l0,0q0.23,0.25 0.52,0.5q0.29,0.25 0.71,0.41q0.43,0.17 1.06,0.17l0,0q0.91,0 1.51,-0.35q0.59,-0.36 0.59,-1.04l0,0q0,-0.45 -0.24,-0.72q-0.24,-0.27 -0.86,-0.49q-0.63,-0.21 -1.71,-0.45l0,0q-1.08,-0.25 -1.71,-0.62q-0.63,-0.37 -0.9,-0.88q-0.27,-0.51 -0.27,-1.16l0,0q0,-0.67 0.4,-1.29q0.4,-0.62 1.16,-1.01q0.77,-0.4 1.92,-0.4l0,0q0.93,0 1.6,0.23q0.67,0.24 1.1,0.59q0.43,0.35 0.65,0.69q0.21,0.34 0.23,0.58l0,0q0.02,0.18 -0.11,0.3q-0.12,0.11 -0.29,0.11l0,0l-0.75,0q-0.13,0 -0.21,-0.05q-0.08,-0.06 -0.15,-0.13l0,0q-0.18,-0.23 -0.42,-0.47q-0.25,-0.23 -0.63,-0.38q-0.39,-0.16 -1.02,-0.16l0,0q-0.9,0 -1.35,0.38q-0.45,0.38 -0.45,0.96l0,0q0,0.34 0.2,0.61q0.19,0.27 0.75,0.48q0.56,0.22 1.66,0.47l0,0q1.19,0.24 1.87,0.63q0.68,0.4 0.97,0.92q0.29,0.52 0.29,1.21l0,0q0,0.75 -0.43,1.38q-0.43,0.63 -1.3,1q-0.86,0.37 -2.12,0.37z" fill="#f3f3f3" id="svg_14" transform="translate(0, 0)"/>
    </g>
   </svg>
  </g>
  <g id="svg_4">
   <svg fill="#f3f3f3" height="39.6" id="svg_15" viewBox="3.259999990463257 9.899999618530273 509.08001708984375 39.599998474121094" width="509.08" x="154" y="98.06">
    <g fill="#4F4E52" id="svg_16">
     <path d="m8.84,41.14l-4.48,0q-0.44,0 -0.77,-0.31q-0.33,-0.31 -0.33,-0.79l0,0l0,-28.6q0,-0.48 0.33,-0.79q0.33,-0.31 0.77,-0.31l0,0l4.09,0q0.66,0 0.99,0.35q0.33,0.35 0.46,0.53l0,0l8.1,14.92l8.18,-14.92q0.09,-0.18 0.42,-0.53q0.33,-0.35 0.99,-0.35l0,0l4.09,0q0.48,0 0.79,0.31q0.31,0.31 0.31,0.79l0,0l0,28.6q0,0.48 -0.31,0.79q-0.31,0.31 -0.79,0.31l0,0l-4.49,0q-0.44,0 -0.75,-0.31q-0.3,-0.31 -0.3,-0.79l0,0l0,-17.78l-5.59,10.48q-0.22,0.39 -0.57,0.7q-0.36,0.31 -0.93,0.31l0,0l-2.07,0q-0.57,0 -0.92,-0.31q-0.35,-0.31 -0.57,-0.7l0,0l-5.59,-10.48l0,17.78q0,0.48 -0.31,0.79q-0.31,0.31 -0.75,0.31l0,0zm51.84,0l-20.29,0q-0.48,0 -0.79,-0.31q-0.31,-0.31 -0.31,-0.79l0,0l0,-28.6q0,-0.48 0.31,-0.79q0.31,-0.31 0.79,-0.31l0,0l19.93,0q0.49,0 0.8,0.31q0.3,0.31 0.3,0.79l0,0l0,3.52q0,0.44 -0.3,0.75q-0.31,0.31 -0.8,0.31l0,0l-14.25,0l0,6.9l13.29,0q0.48,0 0.79,0.31q0.31,0.31 0.31,0.79l0,0l0,3.26q0,0.44 -0.31,0.75q-0.31,0.31 -0.79,0.31l0,0l-13.29,0l0,7.12l14.61,0q0.48,0 0.79,0.31q0.31,0.31 0.31,0.79l0,0l0,3.48q0,0.48 -0.31,0.79q-0.31,0.31 -0.79,0.31l0,0zm12.23,0l-4.8,0q-0.48,0 -0.79,-0.31q-0.31,-0.31 -0.31,-0.79l0,0l0,-28.6q0,-0.48 0.31,-0.79q0.31,-0.31 0.79,-0.31l0,0l11.66,0q5.5,0 8.67,2.53q3.17,2.53 3.17,7.28l0,0q0,3.21 -1.54,5.37q-1.54,2.16 -4.14,3.21l0,0l6.21,11q0.13,0.27 0.13,0.49l0,0q0,0.35 -0.27,0.63q-0.26,0.29 -0.66,0.29l0,0l-4.88,0q-0.79,0 -1.19,-0.42q-0.39,-0.42 -0.57,-0.77l0,0l-5.37,-10.07l-5.32,0l0,10.16q0,0.48 -0.31,0.79q-0.31,0.31 -0.79,0.31l0,0zm1.1,-25.3l0,8.45l5.63,0q2.42,0 3.59,-1.1q1.16,-1.1 1.16,-3.08l0,0q0,-1.98 -1.14,-3.13q-1.15,-1.14 -3.61,-1.14l0,0l-5.63,0zm28.55,25.3l-4.44,0q-0.48,0 -0.79,-0.31q-0.31,-0.31 -0.31,-0.79l0,0l0,-28.6q0,-0.48 0.31,-0.79q0.31,-0.31 0.79,-0.31l0,0l4,0q0.66,0 0.97,0.31q0.31,0.31 0.4,0.48l0,0l11.75,18.35l0,-18.04q0,-0.48 0.3,-0.79q0.31,-0.31 0.75,-0.31l0,0l4.49,0q0.48,0 0.79,0.31q0.31,0.31 0.31,0.79l0,0l0,28.6q0,0.44 -0.31,0.77q-0.31,0.33 -0.79,0.33l0,0l-4.05,0q-0.66,0 -0.94,-0.33q-0.29,-0.33 -0.42,-0.46l0,0l-11.71,-17.78l0,17.47q0,0.48 -0.3,0.79q-0.31,0.31 -0.8,0.31l0,0zm41.14,0l-4.48,0q-0.44,0 -0.77,-0.31q-0.33,-0.31 -0.33,-0.79l0,0l0,-28.6q0,-0.48 0.33,-0.79q0.33,-0.31 0.77,-0.31l0,0l4.09,0q0.66,0 0.99,0.35q0.33,0.35 0.46,0.53l0,0l8.1,14.92l8.18,-14.92q0.09,-0.18 0.42,-0.53q0.33,-0.35 0.99,-0.35l0,0l4.09,0q0.48,0 0.79,0.31q0.31,0.31 0.31,0.79l0,0l0,28.6q0,0.48 -0.31,0.79q-0.31,0.31 -0.79,0.31l0,0l-4.49,0q-0.44,0 -0.75,-0.31q-0.3,-0.31 -0.3,-0.79l0,0l0,-17.78l-5.59,10.48q-0.22,0.39 -0.57,0.7q-0.36,0.31 -0.93,0.31l0,0l-2.07,0q-0.57,0 -0.92,-0.31q-0.35,-0.31 -0.57,-0.7l0,0l-5.59,-10.48l0,17.78q0,0.48 -0.31,0.79q-0.31,0.31 -0.75,0.31l0,0zm40.44,0.44l0,0q-3.65,0 -6.12,-1.21q-2.46,-1.21 -3.76,-3.45q-1.3,-2.25 -1.43,-5.24l0,0q-0.04,-0.88 -0.04,-2q0,-1.12 0.04,-1.96l0,0q0.13,-3.04 1.5,-5.26q1.36,-2.22 3.83,-3.43q2.46,-1.21 5.98,-1.21l0,0q3.48,0 5.94,1.21q2.46,1.21 3.83,3.43q1.36,2.22 1.49,5.26l0,0q0.09,0.84 0.09,1.96q0,1.12 -0.09,2l0,0q-0.13,2.99 -1.43,5.24q-1.29,2.24 -3.76,3.45q-2.46,1.21 -6.07,1.21zm0,-4.84l0,0q2.16,0 3.26,-1.34q1.1,-1.34 1.18,-3.94l0,0q0.05,-0.66 0.05,-1.76q0,-1.1 -0.05,-1.76l0,0q-0.08,-2.55 -1.18,-3.92q-1.1,-1.36 -3.26,-1.36l0,0q-2.16,0 -3.28,1.36q-1.12,1.37 -1.21,3.92l0,0q-0.04,0.66 -0.04,1.76q0,1.1 0.04,1.76l0,0q0.09,2.6 1.21,3.94q1.12,1.34 3.28,1.34zm21.69,4.4l-4.66,0q-0.44,0 -0.75,-0.31q-0.31,-0.31 -0.31,-0.79l0,0l0,-20.68q0,-0.48 0.31,-0.79q0.31,-0.31 0.75,-0.31l0,0l4.31,0q0.48,0 0.79,0.31q0.31,0.31 0.31,0.79l0,0l0,1.72q1.14,-1.41 2.95,-2.34q1.8,-0.92 4.4,-0.92l0,0q2.59,0 4.55,1.17q1.96,1.16 3.08,3.38q1.12,2.23 1.12,5.39l0,0l0,12.28q0,0.48 -0.33,0.79q-0.33,0.31 -0.77,0.31l0,0l-4.66,0q-0.48,0 -0.79,-0.31q-0.31,-0.31 -0.31,-0.79l0,0l0,-12.01q0,-2.33 -1.12,-3.63q-1.12,-1.3 -3.28,-1.3l0,0q-2.07,0 -3.3,1.3q-1.23,1.3 -1.23,3.63l0,0l0,12.01q0,0.48 -0.31,0.79q-0.31,0.31 -0.75,0.31l0,0zm32.61,0.44l0,0q-3.66,0 -6.12,-1.21q-2.46,-1.21 -3.76,-3.45q-1.3,-2.25 -1.43,-5.24l0,0q-0.05,-0.88 -0.05,-2q0,-1.12 0.05,-1.96l0,0q0.13,-3.04 1.49,-5.26q1.37,-2.22 3.83,-3.43q2.47,-1.21 5.99,-1.21l0,0q3.47,0 5.94,1.21q2.46,1.21 3.82,3.43q1.37,2.22 1.5,5.26l0,0q0.09,0.84 0.09,1.96q0,1.12 -0.09,2l0,0q-0.13,2.99 -1.43,5.24q-1.3,2.24 -3.76,3.45q-2.47,1.21 -6.07,1.21zm0,-4.84l0,0q2.15,0 3.25,-1.34q1.1,-1.34 1.19,-3.94l0,0q0.04,-0.66 0.04,-1.76q0,-1.1 -0.04,-1.76l0,0q-0.09,-2.55 -1.19,-3.92q-1.1,-1.36 -3.25,-1.36l0,0q-2.16,0 -3.28,1.36q-1.12,1.37 -1.21,3.92l0,0q-0.05,0.66 -0.05,1.76q0,1.1 0.05,1.76l0,0q0.09,2.6 1.21,3.94q1.12,1.34 3.28,1.34zm21.64,4.4l-4.62,0q-0.44,0 -0.74,-0.31q-0.31,-0.31 -0.31,-0.79l0,0l0,-20.68q0,-0.44 0.31,-0.77q0.3,-0.33 0.74,-0.33l0,0l4.32,0q0.44,0 0.77,0.33q0.33,0.33 0.33,0.77l0,0l0,1.76q1.1,-1.36 2.7,-2.11q1.61,-0.75 3.72,-0.75l0,0l1.89,0q0.44,0 0.75,0.31q0.31,0.31 0.31,0.79l0,0l0,3.78q0,0.49 -0.31,0.8q-0.31,0.3 -0.75,0.3l0,0l-3.87,0q-1.94,0 -3.04,1.08q-1.1,1.08 -1.1,3.06l0,0l0,11.66q0,0.48 -0.3,0.79q-0.31,0.31 -0.8,0.31l0,0zm23.68,0.44l0,0q-5.06,0 -8.03,-2.82q-2.97,-2.81 -3.15,-8.18l0,0q0,-0.35 0,-0.95q0,-0.59 0,-0.94l0,0q0.18,-3.39 1.54,-5.83q1.36,-2.44 3.83,-3.74q2.46,-1.3 5.76,-1.3l0,0q3.7,0 6.18,1.52q2.49,1.52 3.74,4.13q1.26,2.62 1.26,6.01l0,0l0,1.01q0,0.44 -0.33,0.75q-0.33,0.31 -0.77,0.31l0,0l-14.39,0q0,0.04 0,0.15q0,0.11 0,0.2l0,0q0.04,1.41 0.55,2.57q0.51,1.17 1.45,1.87q0.95,0.71 2.27,0.71l0,0q1.1,0 1.8,-0.31q0.71,-0.31 1.17,-0.75q0.46,-0.44 0.68,-0.75l0,0q0.4,-0.44 0.64,-0.55q0.24,-0.11 0.77,-0.11l0,0l4.57,0q0.44,0 0.73,0.25q0.29,0.24 0.24,0.68l0,0q-0.04,0.7 -0.72,1.74q-0.69,1.03 -2.01,2.02q-1.32,0.99 -3.27,1.65q-1.96,0.66 -4.51,0.66zm-4.36,-14.12l0,0.08l8.62,0l0,-0.08q0,-1.59 -0.5,-2.75q-0.51,-1.17 -1.48,-1.83q-0.96,-0.66 -2.33,-0.66l0,0q-1.36,0 -2.33,0.66q-0.97,0.66 -1.47,1.83q-0.51,1.16 -0.51,2.75l0,0zm25.52,22.04l-4.53,0q-0.49,0 -0.79,-0.31q-0.31,-0.31 -0.31,-0.79l0,0l0,-29.04q0,-0.48 0.31,-0.79q0.3,-0.31 0.79,-0.31l0,0l4.18,0q0.48,0 0.79,0.31q0.31,0.31 0.31,0.79l0,0l0,1.67q1.05,-1.41 2.73,-2.31q1.67,-0.9 4.18,-0.9l0,0q2.28,0 3.98,0.73q1.69,0.72 2.86,2.06q1.16,1.35 1.8,3.24q0.64,1.89 0.73,4.27l0,0q0.04,0.83 0.04,1.58q0,0.75 -0.04,1.63l0,0q-0.05,2.24 -0.68,4.13q-0.64,1.9 -1.83,3.26q-1.19,1.36 -2.88,2.11q-1.7,0.75 -3.98,0.75l0,0q-2.25,0 -3.9,-0.81q-1.65,-0.82 -2.7,-2.23l0,0l0,9.86q0,0.48 -0.31,0.79q-0.31,0.31 -0.75,0.31l0,0zm5.68,-13.2l0,0q1.67,0 2.64,-0.73q0.96,-0.72 1.38,-1.91q0.42,-1.19 0.51,-2.6l0,0q0.09,-1.36 0,-2.72l0,0q-0.09,-1.41 -0.51,-2.6q-0.42,-1.19 -1.38,-1.91q-0.97,-0.73 -2.64,-0.73l0,0q-1.63,0 -2.64,0.75q-1.02,0.75 -1.46,1.89q-0.44,1.14 -0.52,2.46l0,0q-0.05,0.8 -0.05,1.63q0,0.84 0.05,1.67l0,0q0.04,1.24 0.55,2.31q0.5,1.08 1.49,1.79q0.99,0.7 2.58,0.7zm26.53,5.28l0,0q-3.65,0 -6.12,-1.21q-2.46,-1.21 -3.76,-3.45q-1.3,-2.25 -1.43,-5.24l0,0q-0.04,-0.88 -0.04,-2q0,-1.12 0.04,-1.96l0,0q0.13,-3.04 1.5,-5.26q1.36,-2.22 3.82,-3.43q2.47,-1.21 5.99,-1.21l0,0q3.47,0 5.94,1.21q2.46,1.21 3.83,3.43q1.36,2.22 1.49,5.26l0,0q0.09,0.84 0.09,1.96q0,1.12 -0.09,2l0,0q-0.13,2.99 -1.43,5.24q-1.3,2.24 -3.76,3.45q-2.46,1.21 -6.07,1.21zm0,-4.84l0,0q2.15,0 3.25,-1.34q1.1,-1.34 1.19,-3.94l0,0q0.05,-0.66 0.05,-1.76q0,-1.1 -0.05,-1.76l0,0q-0.09,-2.55 -1.19,-3.92q-1.1,-1.36 -3.25,-1.36l0,0q-2.16,0 -3.28,1.36q-1.12,1.37 -1.21,3.92l0,0q-0.04,0.66 -0.04,1.76q0,1.1 0.04,1.76l0,0q0.09,2.6 1.21,3.94q1.12,1.34 3.28,1.34zm34.71,4.84l0,0q-2.72,0 -4.68,-0.64q-1.96,-0.64 -3.17,-1.56q-1.21,-0.92 -1.8,-1.87q-0.6,-0.95 -0.64,-1.61l0,0q-0.05,-0.48 0.31,-0.79q0.35,-0.31 0.7,-0.31l0,0l4.27,0q0.13,0 0.26,0.05q0.13,0.04 0.27,0.22l0,0q0.57,0.39 1.18,0.9q0.62,0.51 1.43,0.86q0.82,0.35 2.05,0.35l0,0q1.45,0 2.46,-0.59q1.02,-0.6 1.02,-1.7l0,0q0,-0.79 -0.47,-1.32q-0.46,-0.53 -1.73,-0.97q-1.28,-0.44 -3.79,-0.96l0,0q-2.37,-0.53 -4.05,-1.41q-1.67,-0.88 -2.5,-2.22q-0.84,-1.35 -0.84,-3.24l0,0q0,-1.71 1.08,-3.3q1.08,-1.58 3.19,-2.62q2.11,-1.03 5.28,-1.03l0,0q2.42,0 4.24,0.59q1.83,0.6 3.06,1.5q1.23,0.9 1.87,1.85q0.64,0.94 0.68,1.65l0,0q0.05,0.44 -0.26,0.75q-0.31,0.3 -0.7,0.3l0,0l-3.92,0q-0.22,0 -0.4,-0.06q-0.17,-0.07 -0.3,-0.2l0,0q-0.53,-0.35 -1.08,-0.81q-0.55,-0.47 -1.3,-0.82q-0.75,-0.35 -1.94,-0.35l0,0q-1.45,0 -2.22,0.64q-0.77,0.64 -0.77,1.6l0,0q0,0.62 0.4,1.15q0.39,0.53 1.63,0.97q1.23,0.44 3.74,0.92l0,0q2.99,0.53 4.75,1.58q1.76,1.06 2.53,2.45q0.77,1.38 0.77,2.97l0,0q0,2.06 -1.23,3.67q-1.24,1.61 -3.59,2.51q-2.35,0.9 -5.79,0.9zm29.66,-0.44l-3.83,0q-2.73,0 -4.66,-0.9q-1.94,-0.9 -2.93,-2.8q-0.99,-1.89 -0.99,-4.75l0,0l0,-9.24l-3.43,0q-0.48,0 -0.79,-0.31q-0.31,-0.3 -0.31,-0.79l0,0l0,-2.99q0,-0.48 0.31,-0.79q0.31,-0.31 0.79,-0.31l0,0l3.43,0l0,-7.26q0,-0.48 0.33,-0.79q0.33,-0.31 0.77,-0.31l0,0l4.31,0q0.49,0 0.8,0.31q0.3,0.31 0.3,0.79l0,0l0,7.26l5.5,0q0.44,0 0.75,0.31q0.31,0.31 0.31,0.79l0,0l0,2.99q0,0.49 -0.31,0.79q-0.31,0.31 -0.75,0.31l0,0l-5.5,0l0,8.71q0,1.68 0.6,2.62q0.59,0.95 2.09,0.95l0,0l3.21,0q0.44,0 0.75,0.31q0.31,0.3 0.31,0.74l0,0l0,3.26q0,0.48 -0.31,0.79q-0.31,0.31 -0.75,0.31l0,0zm11.62,0.44l0,0q-2.34,0 -4.18,-0.9q-1.85,-0.9 -2.95,-2.44q-1.1,-1.54 -1.1,-3.44l0,0q0,-3.12 2.53,-4.92q2.53,-1.81 6.66,-2.47l0,0l5.77,-0.83l0,-0.8q0,-1.71 -0.79,-2.64q-0.8,-0.92 -2.78,-0.92l0,0q-1.45,0 -2.33,0.57q-0.88,0.57 -1.36,1.5l0,0q-0.35,0.57 -1.01,0.57l0,0l-4.18,0q-0.49,0 -0.75,-0.29q-0.27,-0.28 -0.22,-0.68l0,0q0,-0.75 0.57,-1.76q0.57,-1.01 1.76,-2q1.19,-0.99 3.04,-1.65q1.84,-0.66 4.53,-0.66l0,0q2.77,0 4.75,0.66q1.98,0.66 3.17,1.85q1.19,1.19 1.76,2.75q0.57,1.56 0.57,3.36l0,0l0,13.6q0,0.48 -0.31,0.79q-0.31,0.31 -0.79,0.31l0,0l-4.31,0q-0.44,0 -0.75,-0.31q-0.31,-0.31 -0.31,-0.79l0,0l0,-1.63q-0.57,0.84 -1.54,1.56q-0.97,0.73 -2.31,1.17q-1.34,0.44 -3.14,0.44zm1.76,-4.58l0,0q1.45,0 2.59,-0.61q1.15,-0.62 1.81,-1.89q0.66,-1.28 0.66,-3.22l0,0l0,-0.74l-4.1,0.66q-2.37,0.39 -3.47,1.18q-1.1,0.8 -1.1,1.94l0,0q0,0.84 0.5,1.45q0.51,0.62 1.35,0.93q0.83,0.3 1.76,0.3zm22.7,4.14l-4.62,0q-0.44,0 -0.75,-0.31q-0.31,-0.31 -0.31,-0.79l0,0l0,-20.68q0,-0.44 0.31,-0.77q0.31,-0.33 0.75,-0.33l0,0l4.31,0q0.44,0 0.77,0.33q0.33,0.33 0.33,0.77l0,0l0,1.76q1.1,-1.36 2.71,-2.11q1.6,-0.75 3.72,-0.75l0,0l1.89,0q0.44,0 0.75,0.31q0.3,0.31 0.3,0.79l0,0l0,3.78q0,0.49 -0.3,0.8q-0.31,0.3 -0.75,0.3l0,0l-3.87,0q-1.94,0 -3.04,1.08q-1.1,1.08 -1.1,3.06l0,0l0,11.66q0,0.48 -0.31,0.79q-0.31,0.31 -0.79,0.31l0,0zm28.29,0l-3.83,0q-2.72,0 -4.66,-0.9q-1.94,-0.9 -2.93,-2.8q-0.99,-1.89 -0.99,-4.75l0,0l0,-9.24l-3.43,0q-0.48,0 -0.79,-0.31q-0.31,-0.3 -0.31,-0.79l0,0l0,-2.99q0,-0.48 0.31,-0.79q0.31,-0.31 0.79,-0.31l0,0l3.43,0l0,-7.26q0,-0.48 0.33,-0.79q0.33,-0.31 0.77,-0.31l0,0l4.32,0q0.48,0 0.79,0.31q0.31,0.31 0.31,0.79l0,0l0,7.26l5.5,0q0.44,0 0.74,0.31q0.31,0.31 0.31,0.79l0,0l0,2.99q0,0.49 -0.31,0.79q-0.3,0.31 -0.74,0.31l0,0l-5.5,0l0,8.71q0,1.68 0.59,2.62q0.59,0.95 2.09,0.95l0,0l3.21,0q0.44,0 0.75,0.31q0.31,0.3 0.31,0.74l0,0l0,3.26q0,0.48 -0.31,0.79q-0.31,0.31 -0.75,0.31l0,0zm15.09,0.44l0,0q-5.06,0 -8.03,-2.82q-2.97,-2.81 -3.14,-8.18l0,0q0,-0.35 0,-0.95q0,-0.59 0,-0.94l0,0q0.17,-3.39 1.54,-5.83q1.36,-2.44 3.83,-3.74q2.46,-1.3 5.76,-1.3l0,0q3.7,0 6.18,1.52q2.49,1.52 3.74,4.13q1.26,2.62 1.26,6.01l0,0l0,1.01q0,0.44 -0.33,0.75q-0.33,0.31 -0.77,0.31l0,0l-14.39,0q0,0.04 0,0.15q0,0.11 0,0.2l0,0q0.04,1.41 0.55,2.57q0.5,1.17 1.45,1.87q0.95,0.71 2.27,0.71l0,0q1.1,0 1.8,-0.31q0.7,-0.31 1.17,-0.75q0.46,-0.44 0.68,-0.75l0,0q0.39,-0.44 0.64,-0.55q0.24,-0.11 0.77,-0.11l0,0l4.57,0q0.44,0 0.73,0.25q0.28,0.24 0.24,0.68l0,0q-0.04,0.7 -0.73,1.74q-0.68,1.03 -2,2.02q-1.32,0.99 -3.28,1.65q-1.95,0.66 -4.51,0.66zm-4.35,-14.12l0,0.08l8.62,0l0,-0.08q0,-1.59 -0.5,-2.75q-0.51,-1.17 -1.48,-1.83q-0.97,-0.66 -2.33,-0.66l0,0q-1.36,0 -2.33,0.66q-0.97,0.66 -1.48,1.83q-0.5,1.16 -0.5,2.75l0,0zm25.56,13.68l-4.62,0q-0.44,0 -0.75,-0.31q-0.3,-0.31 -0.3,-0.79l0,0l0,-20.68q0,-0.44 0.3,-0.77q0.31,-0.33 0.75,-0.33l0,0l4.31,0q0.44,0 0.77,0.33q0.33,0.33 0.33,0.77l0,0l0,1.76q1.1,-1.36 2.71,-2.11q1.61,-0.75 3.72,-0.75l0,0l1.89,0q0.44,0 0.75,0.31q0.31,0.31 0.31,0.79l0,0l0,3.78q0,0.49 -0.31,0.8q-0.31,0.3 -0.75,0.3l0,0l-3.87,0q-1.94,0 -3.04,1.08q-1.1,1.08 -1.1,3.06l0,0l0,11.66q0,0.48 -0.31,0.79q-0.3,0.31 -0.79,0.31l0,0z" fill="#f3f3f3" id="svg_17" transform="translate(0, 0)"/>
    </g>
   </svg>
  </g>
 </g>
</svg>