<svg xmlns="http://www.w3.org/2000/svg" viewBox="119 228.49 585.08 95.56"> <svg xmlns="http://www.w3.org/2000/svg" xmlns:xlink="http://www.w3.org/1999/xlink" version="1.1" id="Layer_1" x="119" y="228.49102783203125" viewBox="3.5999999046325684 1.2750000953674316 63.60136413574219 88.2249984741211" xml:space="preserve" height="90" width="64.88037109375" preserveAspectRatio="xMinYMin" enable-background="new 0 0 70.9 90.7" style="overflow: visible;"><path class="st414" d="M55.4,77.5c-0.7,0-1.4,0.1-2.1,0.2h0c0.2-0.7,0.3-1.4,0.3-2.2c0-5.7-4.6-10.3-10.3-10.3h0v-7.3H27.7v7.3l0,0   c-5.7,0-10.3,4.6-10.3,10.3c0,0.7,0.1,1.5,0.3,2.2h0c-0.7-0.1-1.4-0.2-2.1-0.2c-5.7,0-10.3,4.6-10.3,10.3h60.6   C65.8,82.2,61.1,77.5,55.4,77.5z" style="fill: #81D0F4;"/><path class="st183" d="M21.8,21.4c0-10.7,13.6-18.6,13.6-18.6S49,10.7,49,21.4v33.2c0,1.8-1.5,3.3-3.3,3.3H25.1   c-1.8,0-3.3-1.5-3.3-3.3V21.4z" style="fill: #EB6119;"/><path class="st1" d="M21.8,28.7v21.9H9.2c-2.9,0-4.4-3.4-2.4-5.5L21.8,28.7z" style="fill: #FFFFFF;"/><path class="st1" d="M49,28.7v21.9h12.7c2.9,0,4.4-3.4,2.4-5.5L49,28.7z" style="fill: #FFFFFF;"/><circle class="st1" cx="35.4" cy="27.8" r="6.4" style="fill: #FFFFFF;"/><path class="st325" d="M65.2,44.1L50.5,28.2v-6.7C50.5,10,36.8,1.9,36.2,1.5c-0.5-0.3-1-0.3-1.5,0C34.1,1.9,20.3,10,20.3,21.4v6.7   L5.6,44.1c-1.3,1.4-1.6,3.4-0.9,5.2c0.8,1.8,2.5,2.9,4.4,2.9h11.2v2.5c0,2.6,2.1,4.8,4.8,4.8h20.6c2.6,0,4.8-2.1,4.8-4.8v-2.5h11.2   c1.9,0,3.6-1.1,4.4-2.9C66.9,47.5,66.5,45.5,65.2,44.1z M20.3,49.1H9.2c-1.1,0-1.5-0.8-1.6-1.1c-0.1-0.3-0.4-1.1,0.3-1.9l12.5-13.6   V49.1z M47.5,45.5h-3.3c-0.8,0-1.5,0.7-1.5,1.5s0.7,1.5,1.5,1.5h3.3v6.1c0,1-0.8,1.8-1.8,1.8H25.1c-1,0-1.8-0.8-1.8-1.8v-6.1h13.8   c0.8,0,1.5-0.7,1.5-1.5s-0.7-1.5-1.5-1.5H23.3V21.4c0-8.3,9.4-15,12.1-16.8c2.8,1.8,12.1,8.5,12.1,16.8V45.5z M63.4,48.1   c-0.1,0.3-0.6,1.1-1.6,1.1H50.5V32.6L63,46.1C63.8,46.9,63.5,47.8,63.4,48.1z M35.4,19.9c-4.3,0-7.9,3.5-7.9,7.9   c0,4.3,3.5,7.9,7.9,7.9s7.9-3.5,7.9-7.9C43.3,23.5,39.8,19.9,35.4,19.9z M35.4,32.7c-2.7,0-4.9-2.2-4.9-4.9c0-2.7,2.2-4.9,4.9-4.9   s4.9,2.2,4.9,4.9C40.3,30.5,38.1,32.7,35.4,32.7z" style="fill: #4F4E52;"/><path class="st325" d="M55.4,76c-0.1,0-0.3,0-0.4,0c0-0.2,0-0.3,0-0.5c0-6-4.5-11-10.3-11.7v-5.9h-3V72c0,0.8,0.7,1.5,1.5,1.5   s1.5-0.7,1.5-1.5v-5.1c4.2,0.7,7.3,4.3,7.3,8.7c0,1.6-0.4,3.1-1.2,4.5c-0.4,0.7-0.2,1.6,0.5,2.1c0.2,0.1,0.5,0.2,0.8,0.2   c0.5,0,1-0.3,1.3-0.7c0.5-0.8,0.8-1.6,1.1-2.5c0.3,0,0.6,0,0.9,0c4.9,0,8.8,4,8.8,8.8c0,0.8,0.7,1.5,1.5,1.5s1.5-0.7,1.5-1.5   C67.3,81.3,61.9,76,55.4,76z M26.2,63.8c-5.8,0.7-10.3,5.7-10.3,11.7c0,0.2,0,0.3,0,0.5c-0.1,0-0.3,0-0.4,0   C8.9,76,3.6,81.3,3.6,87.9c0,0.8,0.7,1.5,1.5,1.5s1.5-0.7,1.5-1.5c0-4.9,4-8.8,8.8-8.8c0.3,0,0.6,0,0.9,0c0.3,0.9,0.6,1.7,1.1,2.5   c0.3,0.5,0.8,0.7,1.3,0.7c0.3,0,0.5-0.1,0.8-0.2c0.7-0.4,1-1.3,0.5-2.1c-0.8-1.4-1.2-2.9-1.2-4.5c0-4.4,3.2-8,7.3-8.7V72   c0,0.8,0.7,1.5,1.5,1.5s1.5-0.7,1.5-1.5V57.9h-3V63.8z" style="fill: #4F4E52;"/></svg> <svg x="195" y="307.70999813079834" viewBox="1.5699999332427979 3.9100000858306885 313.6099853515625 16.34000015258789" height="16.34000015258789" width="313.6099853515625" style="overflow: visible;"><g fill="#4F4E52" fill-opacity="1" style=""><path d="M2.88 16.83L1.98 16.83Q1.78 16.83 1.67 16.71Q1.57 16.60 1.57 16.42L1.57 16.42L1.57 4.66Q1.57 4.46 1.67 4.35Q1.78 4.23 1.98 4.23L1.98 4.23L9.32 4.23Q9.52 4.23 9.64 4.35Q9.76 4.46 9.76 4.66L9.76 4.66L9.76 5.38Q9.76 5.58 9.64 5.69Q9.52 5.80 9.32 5.80L9.32 5.80L3.31 5.80L3.31 9.99L8.96 9.99Q9.16 9.99 9.28 10.11Q9.40 10.22 9.40 10.42L9.40 10.42L9.40 11.14Q9.40 11.32 9.28 11.44Q9.16 11.56 8.96 11.56L8.96 11.56L3.31 11.56L3.31 16.42Q3.31 16.60 3.20 16.71Q3.08 16.83 2.88 16.83L2.88 16.83ZM13.14 16.83L12.26 16.83Q12.08 16.83 11.96 16.71Q11.84 16.60 11.84 16.42L11.84 16.42L11.84 7.90Q11.84 7.72 11.96 7.60Q12.08 7.47 12.26 7.47L12.26 7.47L13.09 7.47Q13.27 7.47 13.39 7.60Q13.52 7.72 13.52 7.90L13.52 7.90L13.52 8.69Q13.88 8.08 14.51 7.78Q15.14 7.47 16.04 7.47L16.04 7.47L16.74 7.47Q16.92 7.47 17.04 7.59Q17.15 7.70 17.15 7.88L17.15 7.88L17.15 8.62Q17.15 8.80 17.04 8.91Q16.92 9.02 16.74 9.02L16.74 9.02L15.66 9.02Q14.69 9.02 14.13 9.59Q13.57 10.15 13.57 11.12L13.57 11.12L13.57 16.42Q13.57 16.60 13.45 16.71Q13.32 16.83 13.14 16.83L13.14 16.83ZM22.52 17.01L22.52 17.01Q21.15 17.01 20.23 16.49Q19.31 15.97 18.83 15.04Q18.34 14.11 18.29 12.92L18.29 12.92Q18.27 12.62 18.27 12.14Q18.27 11.66 18.29 11.38L18.29 11.38Q18.34 10.17 18.84 9.25Q19.33 8.33 20.25 7.81Q21.17 7.29 22.52 7.29L22.52 7.29Q23.87 7.29 24.79 7.81Q25.70 8.33 26.20 9.25Q26.69 10.17 26.75 11.38L26.75 11.38Q26.77 11.66 26.77 12.14Q26.77 12.62 26.75 12.92L26.75 12.92Q26.69 14.11 26.21 15.04Q25.72 15.97 24.80 16.49Q23.89 17.01 22.52 17.01ZM22.52 15.62L22.52 15.62Q23.63 15.62 24.30 14.91Q24.97 14.20 25.02 12.83L25.02 12.83Q25.04 12.56 25.04 12.15Q25.04 11.74 25.02 11.47L25.02 11.47Q24.97 10.10 24.30 9.39Q23.63 8.68 22.52 8.68L22.52 8.68Q21.40 8.68 20.73 9.39Q20.05 10.10 20.02 11.47L20.02 11.47Q20.00 11.74 20.00 12.15Q20.00 12.56 20.02 12.83L20.02 12.83Q20.05 14.20 20.73 14.91Q21.40 15.62 22.52 15.62ZM30.29 16.83L29.43 16.83Q29.25 16.83 29.13 16.71Q29.02 16.60 29.02 16.42L29.02 16.42L29.02 7.88Q29.02 7.70 29.13 7.59Q29.25 7.47 29.43 7.47L29.43 7.47L30.24 7.47Q30.42 7.47 30.54 7.59Q30.65 7.70 30.65 7.88L30.65 7.88L30.65 8.51Q31.07 7.96 31.70 7.62Q32.33 7.29 33.21 7.29L33.21 7.29Q35.24 7.27 36.09 8.95L36.09 8.95Q36.50 8.19 37.30 7.74Q38.09 7.29 39.10 7.29L39.10 7.29Q40.03 7.29 40.80 7.72Q41.56 8.15 42.00 9.03Q42.44 9.90 42.44 11.21L42.44 11.21L42.44 16.42Q42.44 16.60 42.33 16.71Q42.21 16.83 42.03 16.83L42.03 16.83L41.18 16.83Q41.00 16.83 40.89 16.71Q40.77 16.60 40.77 16.42L40.77 16.42L40.77 11.38Q40.77 10.37 40.48 9.79Q40.19 9.22 39.71 8.98Q39.22 8.75 38.65 8.75L38.65 8.75Q38.18 8.75 37.69 8.98Q37.21 9.22 36.89 9.79Q36.58 10.37 36.58 11.38L36.58 11.38L36.58 16.42Q36.58 16.60 36.46 16.71Q36.34 16.83 36.16 16.83L36.16 16.83L35.32 16.83Q35.14 16.83 35.02 16.71Q34.90 16.60 34.90 16.42L34.90 16.42L34.90 11.38Q34.90 10.37 34.60 9.79Q34.29 9.22 33.80 8.98Q33.32 8.75 32.78 8.75L32.78 8.75Q32.31 8.75 31.82 8.98Q31.34 9.22 31.02 9.79Q30.71 10.37 30.71 11.36L30.71 11.36L30.71 16.42Q30.71 16.60 30.59 16.71Q30.47 16.83 30.29 16.83L30.29 16.83ZM56.18 16.83L49.25 16.83Q49.07 16.83 48.95 16.71Q48.83 16.60 48.83 16.42L48.83 16.42L48.83 15.79Q48.83 15.62 48.92 15.48Q49.00 15.34 49.09 15.21L49.09 15.21L54.05 8.89L49.41 8.89Q49.23 8.89 49.11 8.78Q49.00 8.68 49.00 8.48L49.00 8.48L49.00 7.88Q49.00 7.70 49.11 7.59Q49.23 7.47 49.41 7.47L49.41 7.47L55.82 7.47Q56.00 7.47 56.12 7.59Q56.23 7.70 56.23 7.88L56.23 7.88L56.23 8.55Q56.23 8.71 56.15 8.84Q56.07 8.96 55.98 9.11L55.98 9.11L51.07 15.41L56.18 15.41Q56.38 15.41 56.48 15.52Q56.59 15.62 56.59 15.82L56.59 15.82L56.59 16.42Q56.59 16.60 56.48 16.71Q56.38 16.83 56.18 16.83L56.18 16.83ZM62.33 17.01L62.33 17.01Q60.46 17.01 59.36 15.87Q58.27 14.72 58.16 12.74L58.16 12.74Q58.14 12.51 58.14 12.14Q58.14 11.77 58.16 11.54L58.16 11.54Q58.23 10.26 58.75 9.30Q59.27 8.33 60.18 7.81Q61.09 7.29 62.32 7.29L62.32 7.29Q63.68 7.29 64.61 7.87Q65.54 8.44 66.02 9.50Q66.51 10.57 66.51 11.99L66.51 11.99L66.51 12.29Q66.51 12.49 66.39 12.60Q66.28 12.71 66.10 12.71L66.10 12.71L59.87 12.71Q59.87 12.73 59.87 12.78Q59.87 12.83 59.87 12.87L59.87 12.87Q59.90 13.61 60.19 14.25Q60.48 14.89 61.03 15.28Q61.58 15.68 62.32 15.68L62.32 15.68Q62.96 15.68 63.40 15.48Q63.83 15.28 64.10 15.04Q64.37 14.80 64.46 14.65L64.46 14.65Q64.62 14.44 64.71 14.39Q64.80 14.35 65.00 14.35L65.00 14.35L65.88 14.35Q66.04 14.35 66.16 14.45Q66.28 14.54 66.26 14.72L66.26 14.72Q66.24 14.99 65.97 15.38Q65.70 15.77 65.20 16.15Q64.71 16.52 63.98 16.77Q63.25 17.01 62.33 17.01ZM59.87 11.41L59.87 11.47L64.80 11.47L64.80 11.41Q64.80 10.60 64.50 9.97Q64.21 9.34 63.65 8.97Q63.09 8.60 62.32 8.60L62.32 8.60Q61.54 8.60 60.99 8.97Q60.44 9.34 60.16 9.97Q59.87 10.60 59.87 11.41L59.87 11.41ZM69.97 16.83L69.08 16.83Q68.90 16.83 68.79 16.71Q68.67 16.60 68.67 16.42L68.67 16.42L68.67 7.90Q68.67 7.72 68.79 7.60Q68.90 7.47 69.08 7.47L69.08 7.47L69.91 7.47Q70.09 7.47 70.22 7.60Q70.34 7.72 70.34 7.90L70.34 7.90L70.34 8.69Q70.70 8.08 71.33 7.78Q71.96 7.47 72.86 7.47L72.86 7.47L73.57 7.47Q73.75 7.47 73.86 7.59Q73.98 7.70 73.98 7.88L73.98 7.88L73.98 8.62Q73.98 8.80 73.86 8.91Q73.75 9.02 73.57 9.02L73.57 9.02L72.49 9.02Q71.51 9.02 70.96 9.59Q70.40 10.15 70.40 11.12L70.40 11.12L70.40 16.42Q70.40 16.60 70.27 16.71Q70.15 16.83 69.97 16.83L69.97 16.83ZM79.34 17.01L79.34 17.01Q77.98 17.01 77.06 16.49Q76.14 15.97 75.65 15.04Q75.17 14.11 75.11 12.92L75.11 12.92Q75.10 12.62 75.10 12.14Q75.10 11.66 75.11 11.38L75.11 11.38Q75.17 10.17 75.66 9.25Q76.16 8.33 77.08 7.81Q77.99 7.29 79.34 7.29L79.34 7.29Q80.69 7.29 81.61 7.81Q82.53 8.33 83.03 9.25Q83.52 10.17 83.57 11.38L83.57 11.38Q83.59 11.66 83.59 12.14Q83.59 12.62 83.57 12.92L83.57 12.92Q83.52 14.11 83.03 15.04Q82.55 15.97 81.63 16.49Q80.71 17.01 79.34 17.01ZM79.34 15.62L79.34 15.62Q80.46 15.62 81.13 14.91Q81.79 14.20 81.85 12.83L81.85 12.83Q81.86 12.56 81.86 12.15Q81.86 11.74 81.85 11.47L81.85 11.47Q81.79 10.10 81.13 9.39Q80.46 8.68 79.34 8.68L79.34 8.68Q78.23 8.68 77.55 9.39Q76.88 10.10 76.84 11.47L76.84 11.47Q76.82 11.74 76.82 12.15Q76.82 12.56 76.84 12.83L76.84 12.83Q76.88 14.20 77.55 14.91Q78.23 15.62 79.34 15.62ZM95.15 16.83L93.91 16.83Q92.90 16.83 92.27 16.44Q91.64 16.06 91.35 15.35Q91.06 14.63 91.06 13.66L91.06 13.66L91.06 8.91L89.66 8.91Q89.48 8.91 89.36 8.79Q89.24 8.68 89.24 8.50L89.24 8.50L89.24 7.88Q89.24 7.70 89.36 7.59Q89.48 7.47 89.66 7.47L89.66 7.47L91.06 7.47L91.06 4.46Q91.06 4.28 91.18 4.17Q91.30 4.05 91.48 4.05L91.48 4.05L92.32 4.05Q92.50 4.05 92.62 4.17Q92.74 4.28 92.74 4.46L92.74 4.46L92.74 7.47L94.97 7.47Q95.17 7.47 95.27 7.59Q95.38 7.70 95.38 7.88L95.38 7.88L95.38 8.50Q95.38 8.68 95.27 8.79Q95.17 8.91 94.97 8.91L94.97 8.91L92.74 8.91L92.74 13.54Q92.74 14.38 93.02 14.87Q93.31 15.35 94.05 15.35L94.05 15.35L95.15 15.35Q95.33 15.35 95.45 15.47Q95.56 15.59 95.56 15.77L95.56 15.77L95.56 16.42Q95.56 16.60 95.45 16.71Q95.33 16.83 95.15 16.83L95.15 16.83ZM101.12 17.01L101.12 17.01Q99.76 17.01 98.84 16.49Q97.92 15.97 97.43 15.04Q96.95 14.11 96.89 12.92L96.89 12.92Q96.88 12.62 96.88 12.14Q96.88 11.66 96.89 11.38L96.89 11.38Q96.95 10.17 97.44 9.25Q97.94 8.33 98.86 7.81Q99.77 7.29 101.12 7.29L101.12 7.29Q102.47 7.29 103.39 7.81Q104.31 8.33 104.81 9.25Q105.30 10.17 105.35 11.38L105.35 11.38Q105.37 11.66 105.37 12.14Q105.37 12.62 105.35 12.92L105.35 12.92Q105.30 14.11 104.81 15.04Q104.33 15.97 103.41 16.49Q102.49 17.01 101.12 17.01ZM101.12 15.62L101.12 15.62Q102.24 15.62 102.91 14.91Q103.57 14.20 103.63 12.83L103.63 12.83Q103.64 12.56 103.64 12.15Q103.64 11.74 103.63 11.47L103.63 11.47Q103.57 10.10 102.91 9.39Q102.24 8.68 101.12 8.68L101.12 8.68Q100.01 8.68 99.33 9.39Q98.66 10.10 98.62 11.47L98.62 11.47Q98.60 11.74 98.60 12.15Q98.60 12.56 98.62 12.83L98.62 12.83Q98.66 14.20 99.33 14.91Q100.01 15.62 101.12 15.62ZM115.45 17.01L115.45 17.01Q114.46 17.01 113.74 16.66Q113.02 16.31 112.56 15.71Q112.10 15.10 111.88 14.33Q111.65 13.55 111.62 12.69L111.62 12.69Q111.60 12.40 111.60 12.15Q111.60 11.90 111.62 11.61L111.62 11.61Q111.65 10.76 111.88 9.99Q112.10 9.22 112.56 8.60Q113.02 7.99 113.74 7.64Q114.46 7.29 115.45 7.29L115.45 7.29Q116.51 7.29 117.22 7.67Q117.92 8.05 118.37 8.60L118.37 8.60L118.37 4.46Q118.37 4.28 118.49 4.17Q118.60 4.05 118.78 4.05L118.78 4.05L119.65 4.05Q119.83 4.05 119.94 4.17Q120.06 4.28 120.06 4.46L120.06 4.46L120.06 16.42Q120.06 16.60 119.94 16.71Q119.83 16.83 119.65 16.83L119.65 16.83L118.84 16.83Q118.64 16.83 118.53 16.71Q118.42 16.60 118.42 16.42L118.42 16.42L118.42 15.66Q117.97 16.24 117.25 16.62Q116.53 17.01 115.45 17.01ZM115.83 15.55L115.83 15.55Q116.73 15.55 117.27 15.14Q117.81 14.72 118.08 14.09Q118.35 13.45 118.37 12.78L118.37 12.78Q118.39 12.49 118.39 12.09Q118.39 11.68 118.37 11.39L118.37 11.39Q118.35 10.76 118.07 10.15Q117.79 9.54 117.24 9.14Q116.69 8.75 115.83 8.75L115.83 8.75Q114.91 8.75 114.37 9.15Q113.83 9.56 113.60 10.21Q113.36 10.87 113.33 11.63L113.33 11.63Q113.31 12.15 113.33 12.67L113.33 12.67Q113.36 13.43 113.60 14.09Q113.83 14.74 114.37 15.15Q114.91 15.55 115.83 15.55ZM126.49 17.01L126.49 17.01Q124.61 17.01 123.52 15.87Q122.42 14.72 122.31 12.74L122.31 12.74Q122.29 12.51 122.29 12.14Q122.29 11.77 122.31 11.54L122.31 11.54Q122.38 10.26 122.90 9.30Q123.43 8.33 124.34 7.81Q125.24 7.29 126.47 7.29L126.47 7.29Q127.84 7.29 128.76 7.87Q129.69 8.44 130.18 9.50Q130.66 10.57 130.66 11.99L130.66 11.99L130.66 12.29Q130.66 12.49 130.55 12.60Q130.43 12.71 130.25 12.71L130.25 12.71L124.02 12.71Q124.02 12.73 124.02 12.78Q124.02 12.83 124.02 12.87L124.02 12.87Q124.06 13.61 124.34 14.25Q124.63 14.89 125.18 15.28Q125.73 15.68 126.47 15.68L126.47 15.68Q127.12 15.68 127.55 15.48Q127.98 15.28 128.25 15.04Q128.52 14.80 128.61 14.65L128.61 14.65Q128.77 14.44 128.86 14.39Q128.95 14.35 129.15 14.35L129.15 14.35L130.03 14.35Q130.19 14.35 130.31 14.45Q130.43 14.54 130.41 14.72L130.41 14.72Q130.39 14.99 130.12 15.38Q129.85 15.77 129.36 16.15Q128.86 16.52 128.13 16.77Q127.40 17.01 126.49 17.01ZM124.02 11.41L124.02 11.47L128.95 11.47L128.95 11.41Q128.95 10.60 128.66 9.97Q128.36 9.34 127.80 8.97Q127.24 8.60 126.47 8.60L126.47 8.60Q125.69 8.60 125.15 8.97Q124.60 9.34 124.31 9.97Q124.02 10.60 124.02 11.41L124.02 11.41ZM134.14 20.25L133.25 20.25Q133.07 20.25 132.96 20.13Q132.84 20.02 132.84 19.84L132.84 19.84L132.84 7.88Q132.84 7.70 132.96 7.59Q133.07 7.47 133.25 7.47L133.25 7.47L134.08 7.47Q134.26 7.47 134.38 7.59Q134.50 7.70 134.50 7.88L134.50 7.88L134.50 8.68Q134.93 8.08 135.65 7.69Q136.37 7.29 137.45 7.29L137.45 7.29Q138.46 7.29 139.17 7.63Q139.88 7.97 140.34 8.57Q140.80 9.16 141.03 9.92Q141.26 10.67 141.30 11.54L141.30 11.54Q141.32 11.83 141.32 12.15Q141.32 12.47 141.30 12.76L141.30 12.76Q141.26 13.61 141.03 14.37Q140.80 15.14 140.34 15.72Q139.88 16.31 139.17 16.66Q138.46 17.01 137.45 17.01L137.45 17.01Q136.40 17.01 135.69 16.62Q134.98 16.24 134.53 15.66L134.53 15.66L134.53 19.84Q134.53 20.02 134.42 20.13Q134.32 20.25 134.14 20.25L134.14 20.25ZM137.07 15.55L137.07 15.55Q138.01 15.55 138.54 15.15Q139.07 14.74 139.30 14.09Q139.54 13.43 139.57 12.67L139.57 12.67Q139.59 12.15 139.57 11.63L139.57 11.63Q139.54 10.87 139.30 10.21Q139.07 9.56 138.54 9.15Q138.01 8.75 137.07 8.75L137.07 8.75Q136.19 8.75 135.64 9.16Q135.09 9.58 134.83 10.21Q134.57 10.85 134.53 11.52L134.53 11.52Q134.51 11.81 134.51 12.20Q134.51 12.60 134.53 12.91L134.53 12.91Q134.55 13.54 134.83 14.15Q135.11 14.76 135.67 15.16Q136.22 15.55 137.07 15.55ZM144.83 16.83L143.98 16.83Q143.80 16.83 143.69 16.71Q143.57 16.60 143.57 16.42L143.57 16.42L143.57 4.46Q143.57 4.28 143.69 4.17Q143.80 4.05 143.98 4.05L143.98 4.05L144.83 4.05Q145.03 4.05 145.13 4.17Q145.24 4.28 145.24 4.46L145.24 4.46L145.24 16.42Q145.24 16.60 145.13 16.71Q145.03 16.83 144.83 16.83L144.83 16.83ZM151.76 17.01L151.76 17.01Q150.39 17.01 149.47 16.49Q148.55 15.97 148.07 15.04Q147.58 14.11 147.53 12.92L147.53 12.92Q147.51 12.62 147.51 12.14Q147.51 11.66 147.53 11.38L147.53 11.38Q147.58 10.17 148.08 9.25Q148.57 8.33 149.49 7.81Q150.41 7.29 151.76 7.29L151.76 7.29Q153.11 7.29 154.03 7.81Q154.94 8.33 155.44 9.25Q155.93 10.17 155.99 11.38L155.99 11.38Q156.01 11.66 156.01 12.14Q156.01 12.62 155.99 12.92L155.99 12.92Q155.93 14.11 155.45 15.04Q154.96 15.97 154.04 16.49Q153.13 17.01 151.76 17.01ZM151.76 15.62L151.76 15.62Q152.87 15.62 153.54 14.91Q154.21 14.20 154.26 12.83L154.26 12.83Q154.28 12.56 154.28 12.15Q154.28 11.74 154.26 11.47L154.26 11.47Q154.21 10.10 153.54 9.39Q152.87 8.68 151.76 8.68L151.76 8.68Q150.64 8.68 149.97 9.39Q149.29 10.10 149.26 11.47L149.26 11.47Q149.24 11.74 149.24 12.15Q149.24 12.56 149.26 12.83L149.26 12.83Q149.29 14.20 149.97 14.91Q150.64 15.62 151.76 15.62ZM160.74 20.25L159.89 20.25Q159.75 20.25 159.64 20.14Q159.53 20.03 159.53 19.89L159.53 19.89Q159.53 19.82 159.55 19.75Q159.57 19.67 159.62 19.57L159.62 19.57L161.01 16.27L157.57 8.15Q157.48 7.94 157.48 7.85L157.48 7.85Q157.48 7.69 157.59 7.58Q157.70 7.47 157.86 7.47L157.86 7.47L158.74 7.47Q158.94 7.47 159.04 7.56Q159.14 7.65 159.17 7.78L159.17 7.78L161.91 14.33L164.72 7.78Q164.77 7.65 164.87 7.56Q164.97 7.47 165.17 7.47L165.17 7.47L166.01 7.47Q166.18 7.47 166.28 7.58Q166.39 7.69 166.39 7.83L166.39 7.83Q166.39 7.92 166.30 8.15L166.30 8.15L161.19 19.94Q161.14 20.07 161.04 20.16Q160.94 20.25 160.74 20.25L160.74 20.25ZM171.94 17.01L171.94 17.01Q170.06 17.01 168.97 15.87Q167.87 14.72 167.76 12.74L167.76 12.74Q167.74 12.51 167.74 12.14Q167.74 11.77 167.76 11.54L167.76 11.54Q167.83 10.26 168.35 9.30Q168.88 8.33 169.79 7.81Q170.69 7.29 171.92 7.29L171.92 7.29Q173.29 7.29 174.21 7.87Q175.14 8.44 175.63 9.50Q176.11 10.57 176.11 11.99L176.11 11.99L176.11 12.29Q176.11 12.49 176.00 12.60Q175.88 12.71 175.70 12.71L175.70 12.71L169.47 12.71Q169.47 12.73 169.47 12.78Q169.47 12.83 169.47 12.87L169.47 12.87Q169.51 13.61 169.79 14.25Q170.08 14.89 170.63 15.28Q171.18 15.68 171.92 15.68L171.92 15.68Q172.57 15.68 173.00 15.48Q173.43 15.28 173.70 15.04Q173.97 14.80 174.06 14.65L174.06 14.65Q174.22 14.44 174.31 14.39Q174.40 14.35 174.60 14.35L174.60 14.35L175.48 14.35Q175.64 14.35 175.76 14.45Q175.88 14.54 175.86 14.72L175.86 14.72Q175.84 14.99 175.57 15.38Q175.30 15.77 174.81 16.15Q174.31 16.52 173.58 16.77Q172.85 17.01 171.94 17.01ZM169.47 11.41L169.47 11.47L174.40 11.47L174.40 11.41Q174.40 10.60 174.11 9.97Q173.81 9.34 173.25 8.97Q172.69 8.60 171.92 8.60L171.92 8.60Q171.14 8.60 170.60 8.97Q170.05 9.34 169.76 9.97Q169.47 10.60 169.47 11.41L169.47 11.41ZM181.69 17.01L181.69 17.01Q180.70 17.01 179.98 16.66Q179.26 16.31 178.80 15.71Q178.34 15.10 178.12 14.33Q177.89 13.55 177.86 12.69L177.86 12.69Q177.84 12.40 177.84 12.15Q177.84 11.90 177.86 11.61L177.86 11.61Q177.89 10.76 178.12 9.99Q178.34 9.22 178.80 8.60Q179.26 7.99 179.98 7.64Q180.70 7.29 181.69 7.29L181.69 7.29Q182.75 7.29 183.46 7.67Q184.16 8.05 184.61 8.60L184.61 8.60L184.61 4.46Q184.61 4.28 184.73 4.17Q184.84 4.05 185.02 4.05L185.02 4.05L185.89 4.05Q186.07 4.05 186.18 4.17Q186.30 4.28 186.30 4.46L186.30 4.46L186.30 16.42Q186.30 16.60 186.18 16.71Q186.07 16.83 185.89 16.83L185.89 16.83L185.08 16.83Q184.88 16.83 184.77 16.71Q184.66 16.60 184.66 16.42L184.66 16.42L184.66 15.66Q184.21 16.24 183.49 16.62Q182.77 17.01 181.69 17.01ZM182.07 15.55L182.07 15.55Q182.97 15.55 183.51 15.14Q184.05 14.72 184.32 14.09Q184.59 13.45 184.61 12.78L184.61 12.78Q184.63 12.49 184.63 12.09Q184.63 11.68 184.61 11.39L184.61 11.39Q184.59 10.76 184.31 10.15Q184.03 9.54 183.48 9.14Q182.93 8.75 182.07 8.75L182.07 8.75Q181.15 8.75 180.61 9.15Q180.07 9.56 179.84 10.21Q179.60 10.87 179.57 11.63L179.57 11.63Q179.55 12.15 179.57 12.67L179.57 12.67Q179.60 13.43 179.84 14.09Q180.07 14.74 180.61 15.15Q181.15 15.55 182.07 15.55ZM196.00 17.01L196.00 17.01Q195.10 17.01 194.36 16.65Q193.63 16.29 193.18 15.68Q192.73 15.07 192.73 14.29L192.73 14.29Q192.73 13.05 193.73 12.31Q194.74 11.57 196.36 11.34L196.36 11.34L199.04 10.96L199.04 10.44Q199.04 9.58 198.55 9.09Q198.05 8.60 196.94 8.60L196.94 8.60Q196.15 8.60 195.64 8.93Q195.14 9.25 194.94 9.76L194.94 9.76Q194.83 10.03 194.56 10.03L194.56 10.03L193.75 10.03Q193.55 10.03 193.46 9.91Q193.36 9.79 193.36 9.63L193.36 9.63Q193.36 9.36 193.56 8.96Q193.77 8.57 194.20 8.19Q194.63 7.81 195.31 7.55Q195.98 7.29 196.96 7.29L196.96 7.29Q198.04 7.29 198.77 7.57Q199.51 7.85 199.94 8.32Q200.36 8.78 200.55 9.38Q200.74 9.97 200.74 10.58L200.74 10.58L200.74 16.42Q200.74 16.60 200.62 16.71Q200.50 16.83 200.32 16.83L200.32 16.83L199.49 16.83Q199.30 16.83 199.19 16.71Q199.08 16.60 199.08 16.42L199.08 16.42L199.08 15.64Q198.85 15.97 198.45 16.28Q198.05 16.60 197.46 16.80Q196.87 17.01 196.00 17.01ZM196.38 15.66L196.38 15.66Q197.12 15.66 197.73 15.35Q198.34 15.03 198.69 14.36Q199.04 13.70 199.04 12.69L199.04 12.69L199.04 12.19L196.96 12.49Q195.68 12.67 195.03 13.10Q194.38 13.52 194.38 14.17L194.38 14.17Q194.38 14.67 194.68 15.00Q194.98 15.34 195.44 15.50Q195.89 15.66 196.38 15.66ZM204.64 20.25L203.76 20.25Q203.58 20.25 203.46 20.13Q203.35 20.02 203.35 19.84L203.35 19.84L203.35 7.88Q203.35 7.70 203.46 7.59Q203.58 7.47 203.76 7.47L203.76 7.47L204.59 7.47Q204.77 7.47 204.89 7.59Q205.00 7.70 205.00 7.88L205.00 7.88L205.00 8.68Q205.43 8.08 206.15 7.69Q206.87 7.29 207.95 7.29L207.95 7.29Q208.96 7.29 209.67 7.63Q210.38 7.97 210.84 8.57Q211.30 9.16 211.54 9.92Q211.77 10.67 211.81 11.54L211.81 11.54Q211.82 11.83 211.82 12.15Q211.82 12.47 211.81 12.76L211.81 12.76Q211.77 13.61 211.54 14.37Q211.30 15.14 210.84 15.72Q210.38 16.31 209.67 16.66Q208.96 17.01 207.95 17.01L207.95 17.01Q206.91 17.01 206.20 16.62Q205.49 16.24 205.04 15.66L205.04 15.66L205.04 19.84Q205.04 20.02 204.93 20.13Q204.82 20.25 204.64 20.25L204.64 20.25ZM207.58 15.55L207.58 15.55Q208.51 15.55 209.04 15.15Q209.57 14.74 209.81 14.09Q210.04 13.43 210.08 12.67L210.08 12.67Q210.10 12.15 210.08 11.63L210.08 11.63Q210.04 10.87 209.81 10.21Q209.57 9.56 209.04 9.15Q208.51 8.75 207.58 8.75L207.58 8.75Q206.69 8.75 206.15 9.16Q205.60 9.58 205.34 10.21Q205.07 10.85 205.04 11.52L205.04 11.52Q205.02 11.81 205.02 12.20Q205.02 12.60 205.04 12.91L205.04 12.91Q205.06 13.54 205.34 14.15Q205.61 14.76 206.17 15.16Q206.73 15.55 207.58 15.55ZM215.37 20.25L214.49 20.25Q214.31 20.25 214.19 20.13Q214.07 20.02 214.07 19.84L214.07 19.84L214.07 7.88Q214.07 7.70 214.19 7.59Q214.31 7.47 214.49 7.47L214.49 7.47L215.32 7.47Q215.50 7.47 215.61 7.59Q215.73 7.70 215.73 7.88L215.73 7.88L215.73 8.68Q216.16 8.08 216.88 7.69Q217.60 7.29 218.68 7.29L218.68 7.29Q219.69 7.29 220.40 7.63Q221.11 7.97 221.57 8.57Q222.03 9.16 222.26 9.92Q222.50 10.67 222.53 11.54L222.53 11.54Q222.55 11.83 222.55 12.15Q222.55 12.47 222.53 12.76L222.53 12.76Q222.50 13.61 222.26 14.37Q222.03 15.14 221.57 15.72Q221.11 16.31 220.40 16.66Q219.69 17.01 218.68 17.01L218.68 17.01Q217.64 17.01 216.93 16.62Q216.22 16.24 215.77 15.66L215.77 15.66L215.77 19.84Q215.77 20.02 215.66 20.13Q215.55 20.25 215.37 20.25L215.37 20.25ZM218.30 15.55L218.30 15.55Q219.24 15.55 219.77 15.15Q220.30 14.74 220.54 14.09Q220.77 13.43 220.81 12.67L220.81 12.67Q220.82 12.15 220.81 11.63L220.81 11.63Q220.77 10.87 220.54 10.21Q220.30 9.56 219.77 9.15Q219.24 8.75 218.30 8.75L218.30 8.75Q217.42 8.75 216.87 9.16Q216.32 9.58 216.06 10.21Q215.80 10.85 215.77 11.52L215.77 11.52Q215.75 11.81 215.75 12.20Q215.75 12.60 215.77 12.91L215.77 12.91Q215.78 13.54 216.06 14.15Q216.34 14.76 216.90 15.16Q217.46 15.55 218.30 15.55ZM230.47 16.83L229.61 16.83Q229.43 16.83 229.31 16.71Q229.19 16.60 229.19 16.42L229.19 16.42L229.19 7.88Q229.19 7.70 229.31 7.59Q229.43 7.47 229.61 7.47L229.61 7.47L230.47 7.47Q230.65 7.47 230.77 7.59Q230.89 7.70 230.89 7.88L230.89 7.88L230.89 16.42Q230.89 16.60 230.77 16.71Q230.65 16.83 230.47 16.83L230.47 16.83ZM230.60 5.72L229.46 5.72Q229.28 5.72 229.17 5.61Q229.05 5.49 229.05 5.31L229.05 5.31L229.05 4.34Q229.05 4.16 229.17 4.03Q229.28 3.91 229.46 3.91L229.46 3.91L230.60 3.91Q230.78 3.91 230.90 4.03Q231.03 4.16 231.03 4.34L231.03 4.34L231.03 5.31Q231.03 5.49 230.90 5.61Q230.78 5.72 230.60 5.72L230.60 5.72ZM234.86 16.83L233.96 16.83Q233.78 16.83 233.67 16.71Q233.55 16.60 233.55 16.42L233.55 16.42L233.55 7.88Q233.55 7.70 233.67 7.59Q233.78 7.47 233.96 7.47L233.96 7.47L234.81 7.47Q234.99 7.47 235.11 7.59Q235.22 7.70 235.22 7.88L235.22 7.88L235.22 8.68Q235.69 8.06 236.40 7.68Q237.11 7.29 238.23 7.29L238.23 7.29Q239.40 7.29 240.22 7.80Q241.04 8.32 241.46 9.23Q241.88 10.13 241.88 11.34L241.88 11.34L241.88 16.42Q241.88 16.60 241.77 16.71Q241.65 16.83 241.47 16.83L241.47 16.83L240.57 16.83Q240.39 16.83 240.27 16.71Q240.16 16.60 240.16 16.42L240.16 16.42L240.16 11.43Q240.16 10.17 239.54 9.46Q238.93 8.75 237.74 8.75L237.74 8.75Q236.63 8.75 235.95 9.46Q235.28 10.17 235.28 11.43L235.28 11.43L235.28 16.42Q235.28 16.60 235.16 16.71Q235.04 16.83 234.86 16.83L234.86 16.83ZM250.15 16.83L249.28 16.83Q249.10 16.83 248.99 16.71Q248.87 16.60 248.87 16.42L248.87 16.42L248.87 7.88Q248.87 7.70 248.99 7.59Q249.10 7.47 249.28 7.47L249.28 7.47L250.09 7.47Q250.27 7.47 250.39 7.59Q250.51 7.70 250.51 7.88L250.51 7.88L250.51 8.51Q250.92 7.96 251.55 7.62Q252.18 7.29 253.06 7.29L253.06 7.29Q255.10 7.27 255.94 8.95L255.94 8.95Q256.36 8.19 257.15 7.74Q257.94 7.29 258.95 7.29L258.95 7.29Q259.88 7.29 260.65 7.72Q261.41 8.15 261.86 9.03Q262.30 9.90 262.30 11.21L262.30 11.21L262.30 16.42Q262.30 16.60 262.18 16.71Q262.06 16.83 261.88 16.83L261.88 16.83L261.04 16.83Q260.86 16.83 260.74 16.71Q260.62 16.60 260.62 16.42L260.62 16.42L260.62 11.38Q260.62 10.37 260.33 9.79Q260.05 9.22 259.56 8.98Q259.07 8.75 258.50 8.75L258.50 8.75Q258.03 8.75 257.54 8.98Q257.06 9.22 256.74 9.79Q256.43 10.37 256.43 11.38L256.43 11.38L256.43 16.42Q256.43 16.60 256.31 16.71Q256.19 16.83 256.01 16.83L256.01 16.83L255.17 16.83Q254.99 16.83 254.87 16.71Q254.75 16.60 254.75 16.42L254.75 16.42L254.75 11.38Q254.75 10.37 254.45 9.79Q254.14 9.22 253.66 8.98Q253.17 8.75 252.63 8.75L252.63 8.75Q252.16 8.75 251.68 8.98Q251.19 9.22 250.88 9.79Q250.56 10.37 250.56 11.36L250.56 11.36L250.56 16.42Q250.56 16.60 250.44 16.71Q250.33 16.83 250.15 16.83L250.15 16.83ZM266.15 16.83L265.28 16.83Q265.10 16.83 264.99 16.71Q264.87 16.60 264.87 16.42L264.87 16.42L264.87 7.88Q264.87 7.70 264.99 7.59Q265.10 7.47 265.28 7.47L265.28 7.47L266.15 7.47Q266.33 7.47 266.45 7.59Q266.56 7.70 266.56 7.88L266.56 7.88L266.56 16.42Q266.56 16.60 266.45 16.71Q266.33 16.83 266.15 16.83L266.15 16.83ZM266.27 5.72L265.14 5.72Q264.96 5.72 264.84 5.61Q264.73 5.49 264.73 5.31L264.73 5.31L264.73 4.34Q264.73 4.16 264.84 4.03Q264.96 3.91 265.14 3.91L265.14 3.91L266.27 3.91Q266.45 3.91 266.58 4.03Q266.71 4.16 266.71 4.34L266.71 4.34L266.71 5.31Q266.71 5.49 266.58 5.61Q266.45 5.72 266.27 5.72L266.27 5.72ZM270.54 16.83L269.64 16.83Q269.46 16.83 269.34 16.71Q269.23 16.60 269.23 16.42L269.23 16.42L269.23 7.88Q269.23 7.70 269.34 7.59Q269.46 7.47 269.64 7.47L269.64 7.47L270.49 7.47Q270.67 7.47 270.78 7.59Q270.90 7.70 270.90 7.88L270.90 7.88L270.90 8.68Q271.37 8.06 272.08 7.68Q272.79 7.29 273.91 7.29L273.91 7.29Q275.08 7.29 275.90 7.80Q276.71 8.32 277.14 9.23Q277.56 10.13 277.56 11.34L277.56 11.34L277.56 16.42Q277.56 16.60 277.44 16.71Q277.33 16.83 277.15 16.83L277.15 16.83L276.25 16.83Q276.07 16.83 275.95 16.71Q275.83 16.60 275.83 16.42L275.83 16.42L275.83 11.43Q275.83 10.17 275.22 9.46Q274.61 8.75 273.42 8.75L273.42 8.75Q272.30 8.75 271.63 9.46Q270.95 10.17 270.95 11.43L270.95 11.43L270.95 16.42Q270.95 16.60 270.84 16.71Q270.72 16.83 270.54 16.83L270.54 16.83ZM283.63 17.01L283.63 17.01Q282.47 17.01 281.67 16.50Q280.87 15.98 280.46 15.07Q280.04 14.15 280.04 12.96L280.04 12.96L280.04 7.88Q280.04 7.70 280.16 7.59Q280.28 7.47 280.46 7.47L280.46 7.47L281.36 7.47Q281.54 7.47 281.66 7.59Q281.77 7.70 281.77 7.88L281.77 7.88L281.77 12.87Q281.77 15.55 284.11 15.55L284.11 15.55Q285.23 15.55 285.90 14.84Q286.58 14.13 286.58 12.87L286.58 12.87L286.58 7.88Q286.58 7.70 286.70 7.59Q286.81 7.47 286.99 7.47L286.99 7.47L287.89 7.47Q288.07 7.47 288.18 7.59Q288.29 7.70 288.29 7.88L288.29 7.88L288.29 16.42Q288.29 16.60 288.18 16.71Q288.07 16.83 287.89 16.83L287.89 16.83L287.05 16.83Q286.87 16.83 286.75 16.71Q286.63 16.60 286.63 16.42L286.63 16.42L286.63 15.62Q286.15 16.25 285.45 16.63Q284.76 17.01 283.63 17.01ZM295.87 16.83L294.62 16.83Q293.62 16.83 292.99 16.44Q292.36 16.06 292.07 15.35Q291.78 14.63 291.78 13.66L291.78 13.66L291.78 8.91L290.38 8.91Q290.20 8.91 290.08 8.79Q289.96 8.68 289.96 8.50L289.96 8.50L289.96 7.88Q289.96 7.70 290.08 7.59Q290.20 7.47 290.38 7.47L290.38 7.47L291.78 7.47L291.78 4.46Q291.78 4.28 291.90 4.17Q292.01 4.05 292.19 4.05L292.19 4.05L293.04 4.05Q293.22 4.05 293.34 4.17Q293.45 4.28 293.45 4.46L293.45 4.46L293.45 7.47L295.69 7.47Q295.88 7.47 295.99 7.59Q296.10 7.70 296.10 7.88L296.10 7.88L296.10 8.50Q296.10 8.68 295.99 8.79Q295.88 8.91 295.69 8.91L295.69 8.91L293.45 8.91L293.45 13.54Q293.45 14.38 293.74 14.87Q294.03 15.35 294.77 15.35L294.77 15.35L295.87 15.35Q296.05 15.35 296.16 15.47Q296.28 15.59 296.28 15.77L296.28 15.77L296.28 16.42Q296.28 16.60 296.16 16.71Q296.05 16.83 295.87 16.83L295.87 16.83ZM301.75 17.01L301.75 17.01Q299.88 17.01 298.78 15.87Q297.68 14.72 297.58 12.74L297.58 12.74Q297.56 12.51 297.56 12.14Q297.56 11.77 297.58 11.54L297.58 11.54Q297.65 10.26 298.17 9.30Q298.69 8.33 299.60 7.81Q300.51 7.29 301.73 7.29L301.73 7.29Q303.10 7.29 304.03 7.87Q304.96 8.44 305.44 9.50Q305.93 10.57 305.93 11.99L305.93 11.99L305.93 12.29Q305.93 12.49 305.81 12.60Q305.69 12.71 305.51 12.71L305.51 12.71L299.29 12.71Q299.29 12.73 299.29 12.78Q299.29 12.83 299.29 12.87L299.29 12.87Q299.32 13.61 299.61 14.25Q299.90 14.89 300.45 15.28Q301.00 15.68 301.73 15.68L301.73 15.68Q302.38 15.68 302.81 15.48Q303.25 15.28 303.52 15.04Q303.79 14.80 303.88 14.65L303.88 14.65Q304.04 14.44 304.13 14.39Q304.22 14.35 304.42 14.35L304.42 14.35L305.30 14.35Q305.46 14.35 305.58 14.45Q305.69 14.54 305.68 14.72L305.68 14.72Q305.66 14.99 305.39 15.38Q305.12 15.77 304.62 16.15Q304.13 16.52 303.40 16.77Q302.67 17.01 301.75 17.01ZM299.29 11.41L299.29 11.47L304.22 11.47L304.22 11.41Q304.22 10.60 303.92 9.97Q303.62 9.34 303.07 8.97Q302.51 8.60 301.73 8.60L301.73 8.60Q300.96 8.60 300.41 8.97Q299.86 9.34 299.57 9.97Q299.29 10.60 299.29 11.41L299.29 11.41ZM311.33 17.01L311.33 17.01Q310.32 17.01 309.60 16.76Q308.88 16.51 308.43 16.15Q307.98 15.79 307.76 15.43Q307.53 15.07 307.51 14.85L307.51 14.85Q307.49 14.65 307.64 14.54Q307.78 14.44 307.93 14.44L307.93 14.44L308.74 14.44Q308.83 14.44 308.89 14.46Q308.95 14.49 309.06 14.62L309.06 14.62Q309.29 14.87 309.58 15.12Q309.87 15.37 310.29 15.53Q310.72 15.70 311.35 15.70L311.35 15.70Q312.26 15.70 312.86 15.35Q313.45 14.99 313.45 14.31L313.45 14.31Q313.45 13.86 313.21 13.59Q312.97 13.32 312.35 13.10Q311.72 12.89 310.64 12.65L310.64 12.65Q309.56 12.40 308.93 12.03Q308.30 11.66 308.03 11.15Q307.76 10.64 307.76 9.99L307.76 9.99Q307.76 9.32 308.16 8.70Q308.56 8.08 309.32 7.69Q310.09 7.29 311.24 7.29L311.24 7.29Q312.17 7.29 312.84 7.52Q313.51 7.76 313.94 8.11Q314.37 8.46 314.59 8.80Q314.80 9.14 314.82 9.38L314.82 9.38Q314.84 9.56 314.71 9.68Q314.59 9.79 314.42 9.79L314.42 9.79L313.67 9.79Q313.54 9.79 313.46 9.74Q313.38 9.68 313.31 9.61L313.31 9.61Q313.13 9.38 312.89 9.14Q312.64 8.91 312.26 8.76Q311.87 8.60 311.24 8.60L311.24 8.60Q310.34 8.60 309.89 8.98Q309.44 9.36 309.44 9.94L309.44 9.94Q309.44 10.28 309.64 10.55Q309.83 10.82 310.39 11.03Q310.95 11.25 312.05 11.50L312.05 11.50Q313.24 11.74 313.92 12.13Q314.60 12.53 314.89 13.05Q315.18 13.57 315.18 14.26L315.18 14.26Q315.18 15.01 314.75 15.64Q314.32 16.27 313.45 16.64Q312.59 17.01 311.33 17.01Z" transform="translate(0, 0)"/></g></svg> <svg x="195" y="262.06000186920164" viewBox="3.259999990463257 9.899999618530273 509.08001708984375 39.599998474121094" height="39.599998474121094" width="509.08001708984375" style="overflow: visible;"><g fill="#4F4E52" fill-opacity="1" style=""><path d="M8.84 41.14L4.36 41.14Q3.92 41.14 3.59 40.83Q3.26 40.52 3.26 40.04L3.26 40.04L3.26 11.44Q3.26 10.96 3.59 10.65Q3.92 10.34 4.36 10.34L4.36 10.34L8.45 10.34Q9.11 10.34 9.44 10.69Q9.77 11.04 9.90 11.22L9.90 11.22L18.00 26.14L26.18 11.22Q26.27 11.04 26.60 10.69Q26.93 10.34 27.59 10.34L27.59 10.34L31.68 10.34Q32.16 10.34 32.47 10.65Q32.78 10.96 32.78 11.44L32.78 11.44L32.78 40.04Q32.78 40.52 32.47 40.83Q32.16 41.14 31.68 41.14L31.68 41.14L27.19 41.14Q26.75 41.14 26.44 40.83Q26.14 40.52 26.14 40.04L26.14 40.04L26.14 22.26L20.55 32.74Q20.33 33.13 19.98 33.44Q19.62 33.75 19.05 33.75L19.05 33.75L16.98 33.75Q16.41 33.75 16.06 33.44Q15.71 33.13 15.49 32.74L15.49 32.74L9.90 22.26L9.90 40.04Q9.90 40.52 9.59 40.83Q9.28 41.14 8.84 41.14L8.84 41.14ZM60.68 41.14L40.39 41.14Q39.91 41.14 39.60 40.83Q39.29 40.52 39.29 40.04L39.29 40.04L39.29 11.44Q39.29 10.96 39.60 10.65Q39.91 10.34 40.39 10.34L40.39 10.34L60.32 10.34Q60.81 10.34 61.12 10.65Q61.42 10.96 61.42 11.44L61.42 11.44L61.42 14.96Q61.42 15.40 61.12 15.71Q60.81 16.02 60.32 16.02L60.32 16.02L46.07 16.02L46.07 22.92L59.36 22.92Q59.84 22.92 60.15 23.23Q60.46 23.54 60.46 24.02L60.46 24.02L60.46 27.28Q60.46 27.72 60.15 28.03Q59.84 28.34 59.36 28.34L59.36 28.34L46.07 28.34L46.07 35.46L60.68 35.46Q61.16 35.46 61.47 35.77Q61.78 36.08 61.78 36.56L61.78 36.56L61.78 40.04Q61.78 40.52 61.47 40.83Q61.16 41.14 60.68 41.14L60.68 41.14ZM72.91 41.14L68.11 41.14Q67.63 41.14 67.32 40.83Q67.01 40.52 67.01 40.04L67.01 40.04L67.01 11.44Q67.01 10.96 67.32 10.65Q67.63 10.34 68.11 10.34L68.11 10.34L79.77 10.34Q85.27 10.34 88.44 12.87Q91.61 15.40 91.61 20.15L91.61 20.15Q91.61 23.36 90.07 25.52Q88.53 27.68 85.93 28.73L85.93 28.73L92.14 39.73Q92.27 40.00 92.27 40.22L92.27 40.22Q92.27 40.57 92.00 40.85Q91.74 41.14 91.34 41.14L91.34 41.14L86.46 41.14Q85.67 41.14 85.27 40.72Q84.88 40.30 84.70 39.95L84.70 39.95L79.33 29.88L74.01 29.88L74.01 40.04Q74.01 40.52 73.70 40.83Q73.39 41.14 72.91 41.14L72.91 41.14ZM74.01 15.84L74.01 24.29L79.64 24.29Q82.06 24.29 83.23 23.19Q84.39 22.09 84.39 20.11L84.39 20.11Q84.39 18.13 83.25 16.98Q82.10 15.84 79.64 15.84L79.64 15.84L74.01 15.84ZM102.56 41.14L98.12 41.14Q97.64 41.14 97.33 40.83Q97.02 40.52 97.02 40.04L97.02 40.04L97.02 11.44Q97.02 10.96 97.33 10.65Q97.64 10.34 98.12 10.34L98.12 10.34L102.12 10.34Q102.78 10.34 103.09 10.65Q103.40 10.96 103.49 11.13L103.49 11.13L115.24 29.48L115.24 11.44Q115.24 10.96 115.54 10.65Q115.85 10.34 116.29 10.34L116.29 10.34L120.78 10.34Q121.26 10.34 121.57 10.65Q121.88 10.96 121.88 11.44L121.88 11.44L121.88 40.04Q121.88 40.48 121.57 40.81Q121.26 41.14 120.78 41.14L120.78 41.14L116.73 41.14Q116.07 41.14 115.79 40.81Q115.50 40.48 115.37 40.35L115.37 40.35L103.66 22.57L103.66 40.04Q103.66 40.52 103.36 40.83Q103.05 41.14 102.56 41.14L102.56 41.14ZM143.70 41.14L139.22 41.14Q138.78 41.14 138.45 40.83Q138.12 40.52 138.12 40.04L138.12 40.04L138.12 11.44Q138.12 10.96 138.45 10.65Q138.78 10.34 139.22 10.34L139.22 10.34L143.31 10.34Q143.97 10.34 144.30 10.69Q144.63 11.04 144.76 11.22L144.76 11.22L152.86 26.14L161.04 11.22Q161.13 11.04 161.46 10.69Q161.79 10.34 162.45 10.34L162.45 10.34L166.54 10.34Q167.02 10.34 167.33 10.65Q167.64 10.96 167.64 11.44L167.64 11.44L167.64 40.04Q167.64 40.52 167.33 40.83Q167.02 41.14 166.54 41.14L166.54 41.14L162.05 41.14Q161.61 41.14 161.30 40.83Q161.00 40.52 161.00 40.04L161.00 40.04L161.00 22.26L155.41 32.74Q155.19 33.13 154.84 33.44Q154.48 33.75 153.91 33.75L153.91 33.75L151.84 33.75Q151.27 33.75 150.92 33.44Q150.57 33.13 150.35 32.74L150.35 32.74L144.76 22.26L144.76 40.04Q144.76 40.52 144.45 40.83Q144.14 41.14 143.70 41.14L143.70 41.14ZM184.14 41.58L184.14 41.58Q180.49 41.58 178.02 40.37Q175.56 39.16 174.26 36.92Q172.96 34.67 172.83 31.68L172.83 31.68Q172.79 30.80 172.79 29.68Q172.79 28.56 172.83 27.72L172.83 27.72Q172.96 24.68 174.33 22.46Q175.69 20.24 178.16 19.03Q180.62 17.82 184.14 17.82L184.14 17.82Q187.62 17.82 190.08 19.03Q192.54 20.24 193.91 22.46Q195.27 24.68 195.40 27.72L195.40 27.72Q195.49 28.56 195.49 29.68Q195.49 30.80 195.40 31.68L195.40 31.68Q195.27 34.67 193.97 36.92Q192.68 39.16 190.21 40.37Q187.75 41.58 184.14 41.58ZM184.14 36.74L184.14 36.74Q186.30 36.74 187.40 35.40Q188.50 34.06 188.58 31.46L188.58 31.46Q188.63 30.80 188.63 29.70Q188.63 28.60 188.58 27.94L188.58 27.94Q188.50 25.39 187.40 24.02Q186.30 22.66 184.14 22.66L184.14 22.66Q181.98 22.66 180.86 24.02Q179.74 25.39 179.65 27.94L179.65 27.94Q179.61 28.60 179.61 29.70Q179.61 30.80 179.65 31.46L179.65 31.46Q179.74 34.06 180.86 35.40Q181.98 36.74 184.14 36.74ZM205.83 41.14L201.17 41.14Q200.73 41.14 200.42 40.83Q200.11 40.52 200.11 40.04L200.11 40.04L200.11 19.36Q200.11 18.88 200.42 18.57Q200.73 18.26 201.17 18.26L201.17 18.26L205.48 18.26Q205.96 18.26 206.27 18.57Q206.58 18.88 206.58 19.36L206.58 19.36L206.58 21.08Q207.72 19.67 209.53 18.74Q211.33 17.82 213.93 17.82L213.93 17.82Q216.52 17.82 218.48 18.99Q220.44 20.15 221.56 22.37Q222.68 24.60 222.68 27.76L222.68 27.76L222.68 40.04Q222.68 40.52 222.35 40.83Q222.02 41.14 221.58 41.14L221.58 41.14L216.92 41.14Q216.44 41.14 216.13 40.83Q215.82 40.52 215.82 40.04L215.82 40.04L215.82 28.03Q215.82 25.70 214.70 24.40Q213.58 23.10 211.42 23.10L211.42 23.10Q209.35 23.10 208.12 24.40Q206.89 25.70 206.89 28.03L206.89 28.03L206.89 40.04Q206.89 40.52 206.58 40.83Q206.27 41.14 205.83 41.14L205.83 41.14ZM238.44 41.58L238.44 41.58Q234.78 41.58 232.32 40.37Q229.86 39.16 228.56 36.92Q227.26 34.67 227.13 31.68L227.13 31.68Q227.08 30.80 227.08 29.68Q227.08 28.56 227.13 27.72L227.13 27.72Q227.26 24.68 228.62 22.46Q229.99 20.24 232.45 19.03Q234.92 17.82 238.44 17.82L238.44 17.82Q241.91 17.82 244.38 19.03Q246.84 20.24 248.20 22.46Q249.57 24.68 249.70 27.72L249.70 27.72Q249.79 28.56 249.79 29.68Q249.79 30.80 249.70 31.68L249.70 31.68Q249.57 34.67 248.27 36.92Q246.97 39.16 244.51 40.37Q242.04 41.58 238.44 41.58ZM238.44 36.74L238.44 36.74Q240.59 36.74 241.69 35.40Q242.79 34.06 242.88 31.46L242.88 31.46Q242.92 30.80 242.92 29.70Q242.92 28.60 242.88 27.94L242.88 27.94Q242.79 25.39 241.69 24.02Q240.59 22.66 238.44 22.66L238.44 22.66Q236.28 22.66 235.16 24.02Q234.04 25.39 233.95 27.94L233.95 27.94Q233.90 28.60 233.90 29.70Q233.90 30.80 233.95 31.46L233.95 31.46Q234.04 34.06 235.16 35.40Q236.28 36.74 238.44 36.74ZM260.08 41.14L255.46 41.14Q255.02 41.14 254.72 40.83Q254.41 40.52 254.41 40.04L254.41 40.04L254.41 19.36Q254.41 18.92 254.72 18.59Q255.02 18.26 255.46 18.26L255.46 18.26L259.78 18.26Q260.22 18.26 260.55 18.59Q260.88 18.92 260.88 19.36L260.88 19.36L260.88 21.12Q261.98 19.76 263.58 19.01Q265.19 18.26 267.30 18.26L267.30 18.26L269.19 18.26Q269.63 18.26 269.94 18.57Q270.25 18.88 270.25 19.36L270.25 19.36L270.25 23.14Q270.25 23.63 269.94 23.94Q269.63 24.24 269.19 24.24L269.19 24.24L265.32 24.24Q263.38 24.24 262.28 25.32Q261.18 26.40 261.18 28.38L261.18 28.38L261.18 40.04Q261.18 40.52 260.88 40.83Q260.57 41.14 260.08 41.14L260.08 41.14ZM283.76 41.58L283.76 41.58Q278.70 41.58 275.73 38.76Q272.76 35.95 272.58 30.58L272.58 30.58Q272.58 30.23 272.58 29.63Q272.58 29.04 272.58 28.69L272.58 28.69Q272.76 25.30 274.12 22.86Q275.48 20.42 277.95 19.12Q280.41 17.82 283.71 17.82L283.71 17.82Q287.41 17.82 289.89 19.34Q292.38 20.86 293.63 23.47Q294.89 26.09 294.89 29.48L294.89 29.48L294.89 30.49Q294.89 30.93 294.56 31.24Q294.23 31.55 293.79 31.55L293.79 31.55L279.40 31.55Q279.40 31.59 279.40 31.70Q279.40 31.81 279.40 31.90L279.40 31.90Q279.44 33.31 279.95 34.47Q280.46 35.64 281.40 36.34Q282.35 37.05 283.67 37.05L283.67 37.05Q284.77 37.05 285.47 36.74Q286.18 36.43 286.64 35.99Q287.10 35.55 287.32 35.24L287.32 35.24Q287.72 34.80 287.96 34.69Q288.20 34.58 288.73 34.58L288.73 34.58L293.30 34.58Q293.74 34.58 294.03 34.83Q294.32 35.07 294.27 35.51L294.27 35.51Q294.23 36.21 293.55 37.25Q292.86 38.28 291.54 39.27Q290.22 40.26 288.27 40.92Q286.31 41.58 283.76 41.58ZM279.40 27.46L279.40 27.54L288.02 27.54L288.02 27.46Q288.02 25.87 287.52 24.71Q287.01 23.54 286.04 22.88Q285.08 22.22 283.71 22.22L283.71 22.22Q282.35 22.22 281.38 22.88Q280.41 23.54 279.91 24.71Q279.40 25.87 279.40 27.46L279.40 27.46ZM304.92 49.50L300.39 49.50Q299.90 49.50 299.60 49.19Q299.29 48.88 299.29 48.40L299.29 48.40L299.29 19.36Q299.29 18.88 299.60 18.57Q299.90 18.26 300.39 18.26L300.39 18.26L304.57 18.26Q305.05 18.26 305.36 18.57Q305.67 18.88 305.67 19.36L305.67 19.36L305.67 21.03Q306.72 19.62 308.40 18.72Q310.07 17.82 312.58 17.82L312.58 17.82Q314.86 17.82 316.56 18.55Q318.25 19.27 319.42 20.61Q320.58 21.96 321.22 23.85Q321.86 25.74 321.95 28.12L321.95 28.12Q321.99 28.95 321.99 29.70Q321.99 30.45 321.95 31.33L321.95 31.33Q321.90 33.57 321.27 35.46Q320.63 37.36 319.44 38.72Q318.25 40.08 316.56 40.83Q314.86 41.58 312.58 41.58L312.58 41.58Q310.33 41.58 308.68 40.77Q307.03 39.95 305.98 38.54L305.98 38.54L305.98 48.40Q305.98 48.88 305.67 49.19Q305.36 49.50 304.92 49.50L304.92 49.50ZM310.60 36.30L310.60 36.30Q312.27 36.30 313.24 35.57Q314.20 34.85 314.62 33.66Q315.04 32.47 315.13 31.06L315.13 31.06Q315.22 29.70 315.13 28.34L315.13 28.34Q315.04 26.93 314.62 25.74Q314.20 24.55 313.24 23.83Q312.27 23.10 310.60 23.10L310.60 23.10Q308.97 23.10 307.96 23.85Q306.94 24.60 306.50 25.74Q306.06 26.88 305.98 28.20L305.98 28.20Q305.93 29.00 305.93 29.83Q305.93 30.67 305.98 31.50L305.98 31.50Q306.02 32.74 306.53 33.81Q307.03 34.89 308.02 35.60Q309.01 36.30 310.60 36.30ZM337.13 41.58L337.13 41.58Q333.48 41.58 331.01 40.37Q328.55 39.16 327.25 36.92Q325.95 34.67 325.82 31.68L325.82 31.68Q325.78 30.80 325.78 29.68Q325.78 28.56 325.82 27.72L325.82 27.72Q325.95 24.68 327.32 22.46Q328.68 20.24 331.14 19.03Q333.61 17.82 337.13 17.82L337.13 17.82Q340.60 17.82 343.07 19.03Q345.53 20.24 346.90 22.46Q348.26 24.68 348.39 27.72L348.39 27.72Q348.48 28.56 348.48 29.68Q348.48 30.80 348.39 31.68L348.39 31.68Q348.26 34.67 346.96 36.92Q345.66 39.16 343.20 40.37Q340.74 41.58 337.13 41.58ZM337.13 36.74L337.13 36.74Q339.28 36.74 340.38 35.40Q341.48 34.06 341.57 31.46L341.57 31.46Q341.62 30.80 341.62 29.70Q341.62 28.60 341.57 27.94L341.57 27.94Q341.48 25.39 340.38 24.02Q339.28 22.66 337.13 22.66L337.13 22.66Q334.97 22.66 333.85 24.02Q332.73 25.39 332.64 27.94L332.64 27.94Q332.60 28.60 332.60 29.70Q332.60 30.80 332.64 31.46L332.64 31.46Q332.73 34.06 333.85 35.40Q334.97 36.74 337.13 36.74ZM371.84 41.58L371.84 41.58Q369.12 41.58 367.16 40.94Q365.20 40.30 363.99 39.38Q362.78 38.46 362.19 37.51Q361.59 36.56 361.55 35.90L361.55 35.90Q361.50 35.42 361.86 35.11Q362.21 34.80 362.56 34.80L362.56 34.80L366.83 34.80Q366.96 34.80 367.09 34.85Q367.22 34.89 367.36 35.07L367.36 35.07Q367.93 35.46 368.54 35.97Q369.16 36.48 369.97 36.83Q370.79 37.18 372.02 37.18L372.02 37.18Q373.47 37.18 374.48 36.59Q375.50 35.99 375.50 34.89L375.50 34.89Q375.50 34.10 375.03 33.57Q374.57 33.04 373.30 32.60Q372.02 32.16 369.51 31.64L369.51 31.64Q367.14 31.11 365.46 30.23Q363.79 29.35 362.96 28.01Q362.12 26.66 362.12 24.77L362.12 24.77Q362.12 23.06 363.20 21.47Q364.28 19.89 366.39 18.85Q368.50 17.82 371.67 17.82L371.67 17.82Q374.09 17.82 375.91 18.41Q377.74 19.01 378.97 19.91Q380.20 20.81 380.84 21.76Q381.48 22.70 381.52 23.41L381.52 23.41Q381.57 23.85 381.26 24.16Q380.95 24.46 380.56 24.46L380.56 24.46L376.64 24.46Q376.42 24.46 376.24 24.40Q376.07 24.33 375.94 24.20L375.94 24.20Q375.41 23.85 374.86 23.39Q374.31 22.92 373.56 22.57Q372.81 22.22 371.62 22.22L371.62 22.22Q370.17 22.22 369.40 22.86Q368.63 23.50 368.63 24.46L368.63 24.46Q368.63 25.08 369.03 25.61Q369.42 26.14 370.66 26.58Q371.89 27.02 374.40 27.50L374.40 27.50Q377.39 28.03 379.15 29.08Q380.91 30.14 381.68 31.53Q382.45 32.91 382.45 34.50L382.45 34.50Q382.45 36.56 381.22 38.17Q379.98 39.78 377.63 40.68Q375.28 41.58 371.84 41.58ZM401.50 41.14L397.67 41.14Q394.94 41.14 393.01 40.24Q391.07 39.34 390.08 37.44Q389.09 35.55 389.09 32.69L389.09 32.69L389.09 23.45L385.66 23.45Q385.18 23.45 384.87 23.14Q384.56 22.84 384.56 22.35L384.56 22.35L384.56 19.36Q384.56 18.88 384.87 18.57Q385.18 18.26 385.66 18.26L385.66 18.26L389.09 18.26L389.09 11.00Q389.09 10.52 389.42 10.21Q389.75 9.90 390.19 9.90L390.19 9.90L394.50 9.90Q394.99 9.90 395.30 10.21Q395.60 10.52 395.60 11.00L395.60 11.00L395.60 18.26L401.10 18.26Q401.54 18.26 401.85 18.57Q402.16 18.88 402.16 19.36L402.16 19.36L402.16 22.35Q402.16 22.84 401.85 23.14Q401.54 23.45 401.10 23.45L401.10 23.45L395.60 23.45L395.60 32.16Q395.60 33.84 396.20 34.78Q396.79 35.73 398.29 35.73L398.29 35.73L401.50 35.73Q401.94 35.73 402.25 36.04Q402.56 36.34 402.56 36.78L402.56 36.78L402.56 40.04Q402.56 40.52 402.25 40.83Q401.94 41.14 401.50 41.14L401.50 41.14ZM413.12 41.58L413.12 41.58Q410.78 41.58 408.94 40.68Q407.09 39.78 405.99 38.24Q404.89 36.70 404.89 34.80L404.89 34.80Q404.89 31.68 407.42 29.88Q409.95 28.07 414.08 27.41L414.08 27.41L419.85 26.58L419.85 25.78Q419.85 24.07 419.06 23.14Q418.26 22.22 416.28 22.22L416.28 22.22Q414.83 22.22 413.95 22.79Q413.07 23.36 412.59 24.29L412.59 24.29Q412.24 24.86 411.58 24.86L411.58 24.86L407.40 24.86Q406.91 24.86 406.65 24.57Q406.38 24.29 406.43 23.89L406.43 23.89Q406.43 23.14 407.00 22.13Q407.57 21.12 408.76 20.13Q409.95 19.14 411.80 18.48Q413.64 17.82 416.33 17.82L416.33 17.82Q419.10 17.82 421.08 18.48Q423.06 19.14 424.25 20.33Q425.44 21.52 426.01 23.08Q426.58 24.64 426.58 26.44L426.58 26.44L426.58 40.04Q426.58 40.52 426.27 40.83Q425.96 41.14 425.48 41.14L425.48 41.14L421.17 41.14Q420.73 41.14 420.42 40.83Q420.11 40.52 420.11 40.04L420.11 40.04L420.11 38.41Q419.54 39.25 418.57 39.97Q417.60 40.70 416.26 41.14Q414.92 41.58 413.12 41.58ZM414.88 37.00L414.88 37.00Q416.33 37.00 417.47 36.39Q418.62 35.77 419.28 34.50Q419.94 33.22 419.94 31.28L419.94 31.28L419.94 30.54L415.84 31.20Q413.47 31.59 412.37 32.38Q411.27 33.18 411.27 34.32L411.27 34.32Q411.27 35.16 411.77 35.77Q412.28 36.39 413.12 36.70Q413.95 37.00 414.88 37.00ZM437.58 41.14L432.96 41.14Q432.52 41.14 432.21 40.83Q431.90 40.52 431.90 40.04L431.90 40.04L431.90 19.36Q431.90 18.92 432.21 18.59Q432.52 18.26 432.96 18.26L432.96 18.26L437.27 18.26Q437.71 18.26 438.04 18.59Q438.37 18.92 438.37 19.36L438.37 19.36L438.37 21.12Q439.47 19.76 441.08 19.01Q442.68 18.26 444.80 18.26L444.80 18.26L446.69 18.26Q447.13 18.26 447.44 18.57Q447.74 18.88 447.74 19.36L447.74 19.36L447.74 23.14Q447.74 23.63 447.44 23.94Q447.13 24.24 446.69 24.24L446.69 24.24L442.82 24.24Q440.88 24.24 439.78 25.32Q438.68 26.40 438.68 28.38L438.68 28.38L438.68 40.04Q438.68 40.52 438.37 40.83Q438.06 41.14 437.58 41.14L437.58 41.14ZM465.87 41.14L462.04 41.14Q459.32 41.14 457.38 40.24Q455.44 39.34 454.45 37.44Q453.46 35.55 453.46 32.69L453.46 32.69L453.46 23.45L450.03 23.45Q449.55 23.45 449.24 23.14Q448.93 22.84 448.93 22.35L448.93 22.35L448.93 19.36Q448.93 18.88 449.24 18.57Q449.55 18.26 450.03 18.26L450.03 18.26L453.46 18.26L453.46 11.00Q453.46 10.52 453.79 10.21Q454.12 9.90 454.56 9.90L454.56 9.90L458.88 9.90Q459.36 9.90 459.67 10.21Q459.98 10.52 459.98 11.00L459.98 11.00L459.98 18.26L465.48 18.26Q465.92 18.26 466.22 18.57Q466.53 18.88 466.53 19.36L466.53 19.36L466.53 22.35Q466.53 22.84 466.22 23.14Q465.92 23.45 465.48 23.45L465.48 23.45L459.98 23.45L459.98 32.16Q459.98 33.84 460.57 34.78Q461.16 35.73 462.66 35.73L462.66 35.73L465.87 35.73Q466.31 35.73 466.62 36.04Q466.93 36.34 466.93 36.78L466.93 36.78L466.93 40.04Q466.93 40.52 466.62 40.83Q466.31 41.14 465.87 41.14L465.87 41.14ZM480.96 41.58L480.96 41.58Q475.90 41.58 472.93 38.76Q469.96 35.95 469.79 30.58L469.79 30.58Q469.79 30.23 469.79 29.63Q469.79 29.04 469.79 28.69L469.79 28.69Q469.96 25.30 471.33 22.86Q472.69 20.42 475.16 19.12Q477.62 17.82 480.92 17.82L480.92 17.82Q484.62 17.82 487.10 19.34Q489.59 20.86 490.84 23.47Q492.10 26.09 492.10 29.48L492.10 29.48L492.10 30.49Q492.10 30.93 491.77 31.24Q491.44 31.55 491.00 31.55L491.00 31.55L476.61 31.55Q476.61 31.59 476.61 31.70Q476.61 31.81 476.61 31.90L476.61 31.90Q476.65 33.31 477.16 34.47Q477.66 35.64 478.61 36.34Q479.56 37.05 480.88 37.05L480.88 37.05Q481.98 37.05 482.68 36.74Q483.38 36.43 483.85 35.99Q484.31 35.55 484.53 35.24L484.53 35.24Q484.92 34.80 485.17 34.69Q485.41 34.58 485.94 34.58L485.94 34.58L490.51 34.58Q490.95 34.58 491.24 34.83Q491.52 35.07 491.48 35.51L491.48 35.51Q491.44 36.21 490.75 37.25Q490.07 38.28 488.75 39.27Q487.43 40.26 485.47 40.92Q483.52 41.58 480.96 41.58ZM476.61 27.46L476.61 27.54L485.23 27.54L485.23 27.46Q485.23 25.87 484.73 24.71Q484.22 23.54 483.25 22.88Q482.28 22.22 480.92 22.22L480.92 22.22Q479.56 22.22 478.59 22.88Q477.62 23.54 477.11 24.71Q476.61 25.87 476.61 27.46L476.61 27.46ZM502.17 41.14L497.55 41.14Q497.11 41.14 496.80 40.83Q496.50 40.52 496.50 40.04L496.50 40.04L496.50 19.36Q496.50 18.92 496.80 18.59Q497.11 18.26 497.55 18.26L497.55 18.26L501.86 18.26Q502.30 18.26 502.63 18.59Q502.96 18.92 502.96 19.36L502.96 19.36L502.96 21.12Q504.06 19.76 505.67 19.01Q507.28 18.26 509.39 18.26L509.39 18.26L511.28 18.26Q511.72 18.26 512.03 18.57Q512.34 18.88 512.34 19.36L512.34 19.36L512.34 23.14Q512.34 23.63 512.03 23.94Q511.72 24.24 511.28 24.24L511.28 24.24L507.41 24.24Q505.47 24.24 504.37 25.32Q503.27 26.40 503.27 28.38L503.27 28.38L503.27 40.04Q503.27 40.52 502.96 40.83Q502.66 41.14 502.17 41.14L502.17 41.14Z" transform="translate(0, 0)"/></g></svg></svg>